<?xml version="1.0" encoding="utf-8" standalone="no"?>
<!DOCTYPE svg PUBLIC "-//W3C//DTD SVG 1.1//EN"
  "http://www.w3.org/Graphics/SVG/1.1/DTD/svg11.dtd">
<svg height="261.80352pt" version="1.1" viewBox="0 0 223.17552 261.80352" width="223.17552pt" xmlns="http://www.w3.org/2000/svg" xmlns:xlink="http://www.w3.org/1999/xlink">
 <metadata>
  <rdf:RDF xmlns:cc="http://creativecommons.org/ns#" xmlns:dc="http://purl.org/dc/elements/1.1/" xmlns:rdf="http://www.w3.org/1999/02/22-rdf-syntax-ns#">
   <cc:Work>
    <dc:type rdf:resource="http://purl.org/dc/dcmitype/StillImage"/>
    <dc:date>2022-12-30T10:04:04.590427</dc:date>
    <dc:format>image/svg+xml</dc:format>
    <dc:creator>
     <cc:Agent>
      <dc:title>Matplotlib v3.4.2, https://matplotlib.org/</dc:title>
     </cc:Agent>
    </dc:creator>
   </cc:Work>
  </rdf:RDF>
 </metadata>
 <defs>
  <style type="text/css">*{stroke-linecap:butt;stroke-linejoin:round;}</style>
 </defs>
 <g id="figure_1">
  <g id="patch_1">
   <path d="M 0 261.80352 
L 223.17552 261.80352 
L 223.17552 0 
L 0 0 
z
" style="fill:none;"/>
  </g>
  <g id="axes_1">
   <g id="patch_2">
    <path d="M 34.621279 116.316973 
L 219.57552 116.316973 
L 219.57552 3.6 
L 34.621279 3.6 
z
" style="fill:none;"/>
   </g>
   <g id="LineCollection_1">
    <path clip-path="url(#p9874a3aa54)" d="M 43.02829 110.746432 
L 43.02829 110.416077 
" style="fill:none;stroke:#ffa0a0;stroke-width:0.5;"/>
    <path clip-path="url(#p9874a3aa54)" d="M 85.063345 103.605842 
L 85.063345 102.943088 
" style="fill:none;stroke:#ffa0a0;stroke-width:0.5;"/>
    <path clip-path="url(#p9874a3aa54)" d="M 127.098399 94.603775 
L 127.098399 93.609801 
" style="fill:none;stroke:#ffa0a0;stroke-width:0.5;"/>
    <path clip-path="url(#p9874a3aa54)" d="M 169.133454 76.40027 
L 169.133454 74.592637 
" style="fill:none;stroke:#ffa0a0;stroke-width:0.5;"/>
    <path clip-path="url(#p9874a3aa54)" d="M 211.168509 20.591425 
L 211.168509 11.786303 
" style="fill:none;stroke:#ffa0a0;stroke-width:0.5;"/>
   </g>
   <g id="LineCollection_2">
    <path clip-path="url(#p9874a3aa54)" d="M 43.02829 111.193474 
L 43.02829 110.770047 
" style="fill:none;stroke:#1e90ff;stroke-width:0.5;"/>
    <path clip-path="url(#p9874a3aa54)" d="M 85.063345 106.022643 
L 85.063345 105.347986 
" style="fill:none;stroke:#1e90ff;stroke-width:0.5;"/>
    <path clip-path="url(#p9874a3aa54)" d="M 127.098399 97.749658 
L 127.098399 96.717671 
" style="fill:none;stroke:#1e90ff;stroke-width:0.5;"/>
    <path clip-path="url(#p9874a3aa54)" d="M 169.133454 81.437916 
L 169.133454 79.751284 
" style="fill:none;stroke:#1e90ff;stroke-width:0.5;"/>
    <path clip-path="url(#p9874a3aa54)" d="M 211.168509 40.583172 
L 211.168509 33.484284 
" style="fill:none;stroke:#1e90ff;stroke-width:0.5;"/>
   </g>
   <g id="line2d_1">
    <defs>
     <path d="M 3 0 
L -3 -0 
" id="m62f7c93e9e" style="stroke:#ffa0a0;stroke-width:0.5;"/>
    </defs>
    <g clip-path="url(#p9874a3aa54)">
     <use style="fill:#ffa0a0;stroke:#ffa0a0;stroke-width:0.5;" x="43.02829" xlink:href="#m62f7c93e9e" y="110.746432"/>
     <use style="fill:#ffa0a0;stroke:#ffa0a0;stroke-width:0.5;" x="85.063345" xlink:href="#m62f7c93e9e" y="103.605842"/>
     <use style="fill:#ffa0a0;stroke:#ffa0a0;stroke-width:0.5;" x="127.098399" xlink:href="#m62f7c93e9e" y="94.603775"/>
     <use style="fill:#ffa0a0;stroke:#ffa0a0;stroke-width:0.5;" x="169.133454" xlink:href="#m62f7c93e9e" y="76.40027"/>
     <use style="fill:#ffa0a0;stroke:#ffa0a0;stroke-width:0.5;" x="211.168509" xlink:href="#m62f7c93e9e" y="20.591425"/>
    </g>
   </g>
   <g id="line2d_2">
    <g clip-path="url(#p9874a3aa54)">
     <use style="fill:#ffa0a0;stroke:#ffa0a0;stroke-width:0.5;" x="43.02829" xlink:href="#m62f7c93e9e" y="110.416077"/>
     <use style="fill:#ffa0a0;stroke:#ffa0a0;stroke-width:0.5;" x="85.063345" xlink:href="#m62f7c93e9e" y="102.943088"/>
     <use style="fill:#ffa0a0;stroke:#ffa0a0;stroke-width:0.5;" x="127.098399" xlink:href="#m62f7c93e9e" y="93.609801"/>
     <use style="fill:#ffa0a0;stroke:#ffa0a0;stroke-width:0.5;" x="169.133454" xlink:href="#m62f7c93e9e" y="74.592637"/>
     <use style="fill:#ffa0a0;stroke:#ffa0a0;stroke-width:0.5;" x="211.168509" xlink:href="#m62f7c93e9e" y="11.786303"/>
    </g>
   </g>
   <g id="line2d_3">
    <path clip-path="url(#p9874a3aa54)" d="M 43.02829 110.581254 
L 85.063345 103.274465 
L 127.098399 94.106788 
L 169.133454 75.496454 
L 211.168509 16.188864 
" style="fill:none;stroke:#ffa0a0;stroke-dasharray:1.85,0.8;stroke-dashoffset:0;stroke-linecap:round;stroke-width:0.5;"/>
   </g>
   <g id="line2d_4">
    <defs>
     <path d="M 3 0 
L -3 -0 
" id="m427f5d16a4" style="stroke:#1e90ff;stroke-width:0.5;"/>
    </defs>
    <g clip-path="url(#p9874a3aa54)">
     <use style="fill:#1e90ff;stroke:#1e90ff;stroke-width:0.5;" x="43.02829" xlink:href="#m427f5d16a4" y="111.193474"/>
     <use style="fill:#1e90ff;stroke:#1e90ff;stroke-width:0.5;" x="85.063345" xlink:href="#m427f5d16a4" y="106.022643"/>
     <use style="fill:#1e90ff;stroke:#1e90ff;stroke-width:0.5;" x="127.098399" xlink:href="#m427f5d16a4" y="97.749658"/>
     <use style="fill:#1e90ff;stroke:#1e90ff;stroke-width:0.5;" x="169.133454" xlink:href="#m427f5d16a4" y="81.437916"/>
     <use style="fill:#1e90ff;stroke:#1e90ff;stroke-width:0.5;" x="211.168509" xlink:href="#m427f5d16a4" y="40.583172"/>
    </g>
   </g>
   <g id="line2d_5">
    <g clip-path="url(#p9874a3aa54)">
     <use style="fill:#1e90ff;stroke:#1e90ff;stroke-width:0.5;" x="43.02829" xlink:href="#m427f5d16a4" y="110.770047"/>
     <use style="fill:#1e90ff;stroke:#1e90ff;stroke-width:0.5;" x="85.063345" xlink:href="#m427f5d16a4" y="105.347986"/>
     <use style="fill:#1e90ff;stroke:#1e90ff;stroke-width:0.5;" x="127.098399" xlink:href="#m427f5d16a4" y="96.717671"/>
     <use style="fill:#1e90ff;stroke:#1e90ff;stroke-width:0.5;" x="169.133454" xlink:href="#m427f5d16a4" y="79.751284"/>
     <use style="fill:#1e90ff;stroke:#1e90ff;stroke-width:0.5;" x="211.168509" xlink:href="#m427f5d16a4" y="33.484284"/>
    </g>
   </g>
   <g id="line2d_6">
    <path clip-path="url(#p9874a3aa54)" d="M 43.02829 110.98176 
L 85.063345 105.685315 
L 127.098399 97.233664 
L 169.133454 80.5946 
L 211.168509 37.033728 
" style="fill:none;stroke:#1e90ff;stroke-dasharray:1.85,0.8;stroke-dashoffset:0;stroke-linecap:round;stroke-width:0.5;"/>
   </g>
   <g id="line2d_7">
    <defs>
     <path d="M 0 1.5 
C 0.397805 1.5 0.77937 1.341951 1.06066 1.06066 
C 1.341951 0.77937 1.5 0.397805 1.5 0 
C 1.5 -0.397805 1.341951 -0.77937 1.06066 -1.06066 
C 0.77937 -1.341951 0.397805 -1.5 0 -1.5 
C -0.397805 -1.5 -0.77937 -1.341951 -1.06066 -1.06066 
C -1.341951 -0.77937 -1.5 -0.397805 -1.5 0 
C -1.5 0.397805 -1.341951 0.77937 -1.06066 1.06066 
C -0.77937 1.341951 -0.397805 1.5 0 1.5 
z
" id="mb100ec0e32" style="stroke:#ffa0a0;stroke-width:0.5;"/>
    </defs>
    <g clip-path="url(#p9874a3aa54)">
     <use style="fill:#fecfcf;stroke:#ffa0a0;stroke-width:0.5;" x="43.02829" xlink:href="#mb100ec0e32" y="110.581254"/>
     <use style="fill:#fecfcf;stroke:#ffa0a0;stroke-width:0.5;" x="85.063345" xlink:href="#mb100ec0e32" y="103.274465"/>
     <use style="fill:#fecfcf;stroke:#ffa0a0;stroke-width:0.5;" x="127.098399" xlink:href="#mb100ec0e32" y="94.106788"/>
     <use style="fill:#fecfcf;stroke:#ffa0a0;stroke-width:0.5;" x="169.133454" xlink:href="#mb100ec0e32" y="75.496454"/>
     <use style="fill:#fecfcf;stroke:#ffa0a0;stroke-width:0.5;" x="211.168509" xlink:href="#mb100ec0e32" y="16.188864"/>
    </g>
   </g>
   <g id="line2d_8">
    <defs>
     <path d="M 0 1.5 
C 0.397805 1.5 0.77937 1.341951 1.06066 1.06066 
C 1.341951 0.77937 1.5 0.397805 1.5 0 
C 1.5 -0.397805 1.341951 -0.77937 1.06066 -1.06066 
C 0.77937 -1.341951 0.397805 -1.5 0 -1.5 
C -0.397805 -1.5 -0.77937 -1.341951 -1.06066 -1.06066 
C -1.341951 -0.77937 -1.5 -0.397805 -1.5 0 
C -1.5 0.397805 -1.341951 0.77937 -1.06066 1.06066 
C -0.77937 1.341951 -0.397805 1.5 0 1.5 
z
" id="md5ef54567b" style="stroke:#1e90ff;stroke-width:0.5;"/>
    </defs>
    <g clip-path="url(#p9874a3aa54)">
     <use style="fill:#8ec7fe;stroke:#1e90ff;stroke-width:0.5;" x="43.02829" xlink:href="#md5ef54567b" y="110.98176"/>
     <use style="fill:#8ec7fe;stroke:#1e90ff;stroke-width:0.5;" x="85.063345" xlink:href="#md5ef54567b" y="105.685315"/>
     <use style="fill:#8ec7fe;stroke:#1e90ff;stroke-width:0.5;" x="127.098399" xlink:href="#md5ef54567b" y="97.233664"/>
     <use style="fill:#8ec7fe;stroke:#1e90ff;stroke-width:0.5;" x="169.133454" xlink:href="#md5ef54567b" y="80.5946"/>
     <use style="fill:#8ec7fe;stroke:#1e90ff;stroke-width:0.5;" x="211.168509" xlink:href="#md5ef54567b" y="37.033728"/>
    </g>
   </g>
   <g id="matplotlib.axis_1">
    <g id="xtick_1">
     <g id="line2d_9">
      <defs>
       <path d="M 0 0 
L 0 2 
" id="mab065f19c9" style="stroke:#000000;stroke-width:0.35;"/>
      </defs>
      <g>
       <use style="stroke:#000000;stroke-width:0.35;" x="43.02829" xlink:href="#mab065f19c9" y="116.316973"/>
      </g>
     </g>
    </g>
    <g id="xtick_2">
     <g id="line2d_10">
      <g>
       <use style="stroke:#000000;stroke-width:0.35;" x="85.063345" xlink:href="#mab065f19c9" y="116.316973"/>
      </g>
     </g>
    </g>
    <g id="xtick_3">
     <g id="line2d_11">
      <g>
       <use style="stroke:#000000;stroke-width:0.35;" x="127.098399" xlink:href="#mab065f19c9" y="116.316973"/>
      </g>
     </g>
    </g>
    <g id="xtick_4">
     <g id="line2d_12">
      <g>
       <use style="stroke:#000000;stroke-width:0.35;" x="169.133454" xlink:href="#mab065f19c9" y="116.316973"/>
      </g>
     </g>
    </g>
    <g id="xtick_5">
     <g id="line2d_13">
      <g>
       <use style="stroke:#000000;stroke-width:0.35;" x="211.168509" xlink:href="#mab065f19c9" y="116.316973"/>
      </g>
     </g>
    </g>
   </g>
   <g id="matplotlib.axis_2">
    <g id="ytick_1">
     <g id="line2d_14">
      <defs>
       <path d="M 0 0 
L -2 0 
" id="m49edad2543" style="stroke:#000000;stroke-width:0.35;"/>
      </defs>
      <g>
       <use style="stroke:#000000;stroke-width:0.35;" x="34.621279" xlink:href="#m49edad2543" y="100.461155"/>
      </g>
     </g>
     <g id="text_1">
      <!-- $\mathdefault{500}$ -->
      <g transform="translate(16.91873 103.228556)scale(0.08 -0.08)">
       <defs>
        <path d="M 730 3750 
C 794 3724 1056 3641 1325 3641 
C 1920 3641 2246 3961 2432 4140 
C 2432 4191 2432 4224 2394 4224 
C 2387 4224 2374 4224 2323 4198 
C 2099 4102 1837 4032 1517 4032 
C 1325 4032 1037 4055 723 4191 
C 653 4224 640 4224 634 4224 
C 602 4224 595 4217 595 4090 
L 595 2231 
C 595 2113 595 2080 659 2080 
C 691 2080 704 2093 736 2139 
C 941 2435 1222 2560 1542 2560 
C 1766 2560 2246 2415 2246 1293 
C 2246 1087 2246 716 2054 422 
C 1894 159 1645 25 1370 25 
C 947 25 518 319 403 812 
C 429 806 480 793 506 793 
C 589 793 749 838 749 1036 
C 749 1209 627 1280 506 1280 
C 358 1280 262 1190 262 1011 
C 262 454 704 -128 1382 -128 
C 2042 -128 2669 441 2669 1267 
C 2669 2054 2170 2662 1549 2662 
C 1222 2662 947 2540 730 2304 
L 730 3750 
z
" id="CMR17-35" transform="scale(0.015625)"/>
        <path d="M 2688 2038 
C 2688 2430 2682 3099 2413 3613 
C 2176 4063 1798 4224 1466 4224 
C 1158 4224 768 4082 525 3620 
C 269 3137 243 2539 243 2038 
C 243 1671 250 1112 448 623 
C 723 -39 1216 -128 1466 -128 
C 1760 -128 2208 -7 2470 604 
C 2662 1048 2688 1568 2688 2038 
z
M 1466 -26 
C 1056 -26 813 328 723 816 
C 653 1196 653 1749 653 2109 
C 653 2604 653 3015 736 3407 
C 858 3954 1216 4121 1466 4121 
C 1728 4121 2067 3947 2189 3420 
C 2272 3054 2278 2623 2278 2109 
C 2278 1691 2278 1176 2202 797 
C 2067 96 1690 -26 1466 -26 
z
" id="CMR17-30" transform="scale(0.015625)"/>
       </defs>
       <use transform="scale(0.996264)" xlink:href="#CMR17-35"/>
       <use transform="translate(45.690477 0)scale(0.996264)" xlink:href="#CMR17-30"/>
       <use transform="translate(91.380954 0)scale(0.996264)" xlink:href="#CMR17-30"/>
      </g>
     </g>
    </g>
    <g id="ytick_2">
     <g id="line2d_15">
      <g>
       <use style="stroke:#000000;stroke-width:0.35;" x="34.621279" xlink:href="#m49edad2543" y="80.924285"/>
      </g>
     </g>
     <g id="text_2">
      <!-- $\mathdefault{1000}$ -->
      <g transform="translate(12.684547 83.691686)scale(0.08 -0.08)">
       <defs>
        <path d="M 1702 4083 
C 1702 4217 1696 4224 1606 4224 
C 1357 3927 979 3833 621 3820 
C 602 3820 570 3820 563 3808 
C 557 3795 557 3782 557 3648 
C 755 3648 1088 3686 1344 3839 
L 1344 467 
C 1344 243 1331 166 781 166 
L 589 166 
L 589 0 
C 896 6 1216 12 1523 12 
C 1830 12 2150 6 2458 0 
L 2458 166 
L 2266 166 
C 1715 166 1702 236 1702 467 
L 1702 4083 
z
" id="CMR17-31" transform="scale(0.015625)"/>
       </defs>
       <use transform="scale(0.996264)" xlink:href="#CMR17-31"/>
       <use transform="translate(45.690477 0)scale(0.996264)" xlink:href="#CMR17-30"/>
       <use transform="translate(91.380954 0)scale(0.996264)" xlink:href="#CMR17-30"/>
       <use transform="translate(137.071431 0)scale(0.996264)" xlink:href="#CMR17-30"/>
      </g>
     </g>
    </g>
    <g id="ytick_3">
     <g id="line2d_16">
      <g>
       <use style="stroke:#000000;stroke-width:0.35;" x="34.621279" xlink:href="#m49edad2543" y="61.387414"/>
      </g>
     </g>
     <g id="text_3">
      <!-- $\mathdefault{1500}$ -->
      <g transform="translate(12.684547 64.154815)scale(0.08 -0.08)">
       <use transform="scale(0.996264)" xlink:href="#CMR17-31"/>
       <use transform="translate(45.690477 0)scale(0.996264)" xlink:href="#CMR17-35"/>
       <use transform="translate(91.380954 0)scale(0.996264)" xlink:href="#CMR17-30"/>
       <use transform="translate(137.071431 0)scale(0.996264)" xlink:href="#CMR17-30"/>
      </g>
     </g>
    </g>
    <g id="ytick_4">
     <g id="line2d_17">
      <g>
       <use style="stroke:#000000;stroke-width:0.35;" x="34.621279" xlink:href="#m49edad2543" y="41.850543"/>
      </g>
     </g>
     <g id="text_4">
      <!-- $\mathdefault{2000}$ -->
      <g transform="translate(12.684547 44.617944)scale(0.08 -0.08)">
       <defs>
        <path d="M 2669 990 
L 2554 990 
C 2490 537 2438 460 2413 422 
C 2381 371 1920 371 1830 371 
L 602 371 
C 832 620 1280 1073 1824 1596 
C 2214 1966 2669 2400 2669 3033 
C 2669 3788 2067 4224 1395 4224 
C 691 4224 262 3603 262 3027 
C 262 2777 448 2745 525 2745 
C 589 2745 781 2783 781 3007 
C 781 3206 614 3264 525 3264 
C 486 3264 448 3257 422 3244 
C 544 3788 915 4057 1306 4057 
C 1862 4057 2227 3616 2227 3033 
C 2227 2477 1901 1998 1536 1583 
L 262 147 
L 262 0 
L 2515 0 
L 2669 990 
z
" id="CMR17-32" transform="scale(0.015625)"/>
       </defs>
       <use transform="scale(0.996264)" xlink:href="#CMR17-32"/>
       <use transform="translate(45.690477 0)scale(0.996264)" xlink:href="#CMR17-30"/>
       <use transform="translate(91.380954 0)scale(0.996264)" xlink:href="#CMR17-30"/>
       <use transform="translate(137.071431 0)scale(0.996264)" xlink:href="#CMR17-30"/>
      </g>
     </g>
    </g>
    <g id="ytick_5">
     <g id="line2d_18">
      <g>
       <use style="stroke:#000000;stroke-width:0.35;" x="34.621279" xlink:href="#m49edad2543" y="22.313673"/>
      </g>
     </g>
     <g id="text_5">
      <!-- $\mathdefault{2500}$ -->
      <g transform="translate(12.684547 25.081074)scale(0.08 -0.08)">
       <use transform="scale(0.996264)" xlink:href="#CMR17-32"/>
       <use transform="translate(45.690477 0)scale(0.996264)" xlink:href="#CMR17-35"/>
       <use transform="translate(91.380954 0)scale(0.996264)" xlink:href="#CMR17-30"/>
       <use transform="translate(137.071431 0)scale(0.996264)" xlink:href="#CMR17-30"/>
      </g>
     </g>
    </g>
    <g id="text_6">
     <!-- $\rm{Autocorrelation\;Time}\;\; \mathcal{T}$ -->
     <g transform="translate(9.134802 104.639595)rotate(-90)scale(0.08 -0.08)">
      <defs>
       <path d="M 2323 4441 
C 2291 4524 2278 4544 2214 4544 
C 2150 4544 2138 4524 2106 4441 
L 749 580 
C 627 236 371 166 147 166 
L 147 0 
C 262 12 518 12 640 12 
C 800 12 1056 12 1210 0 
L 1210 166 
C 909 179 864 382 864 459 
C 864 516 877 548 890 586 
L 1229 1536 
L 2906 1536 
L 3290 453 
C 3322 376 3322 363 3322 338 
C 3322 166 3046 166 2925 166 
L 2925 0 
C 3110 12 3443 12 3642 12 
C 3808 12 4128 12 4282 0 
L 4282 166 
C 3942 166 3827 166 3744 402 
L 2323 4441 
z
M 2067 3924 
L 2848 1702 
L 1286 1702 
L 2067 3924 
z
" id="CMR17-41" transform="scale(0.015625)"/>
       <path d="M 1882 2745 
L 1882 2579 
C 2259 2579 2317 2540 2317 2229 
L 2317 1053 
C 2317 510 2029 38 1555 38 
C 1030 38 986 355 986 691 
L 986 2816 
L 211 2745 
L 211 2579 
C 467 2579 640 2579 646 2320 
L 646 1079 
C 646 646 646 368 813 187 
C 896 103 1056 -64 1517 -64 
C 2061 -64 2272 400 2323 536 
L 2330 536 
L 2330 -64 
L 3091 -13 
L 3091 154 
C 2714 154 2656 193 2656 503 
L 2656 2816 
L 1882 2745 
z
" id="CMR17-75" transform="scale(0.015625)"/>
       <path d="M 966 2585 
L 1862 2585 
L 1862 2752 
L 966 2752 
L 966 3968 
L 851 3968 
C 838 3292 614 2700 70 2687 
L 70 2585 
L 627 2585 
L 627 778 
C 627 655 627 -64 1370 -64 
C 1747 -64 1965 308 1965 784 
L 1965 1151 
L 1850 1151 
L 1850 790 
C 1850 347 1677 51 1408 51 
C 1222 51 966 179 966 765 
L 966 2585 
z
" id="CMR17-74" transform="scale(0.015625)"/>
       <path d="M 2758 1356 
C 2758 2176 2163 2816 1466 2816 
C 768 2816 173 2176 173 1356 
C 173 550 768 -64 1466 -64 
C 2163 -64 2758 550 2758 1356 
z
M 1466 51 
C 1165 51 909 230 762 480 
C 602 768 582 1126 582 1408 
C 582 1676 595 2009 762 2297 
C 890 2508 1139 2713 1466 2713 
C 1754 2713 1997 2553 2150 2329 
C 2349 2028 2349 1606 2349 1408 
C 2349 1158 2336 774 2163 467 
C 1984 172 1709 51 1466 51 
z
" id="CMR17-6f" transform="scale(0.015625)"/>
       <path d="M 2234 2240 
C 2112 2240 1933 2240 1933 2015 
C 1933 1836 2080 1785 2163 1785 
C 2208 1785 2394 1804 2394 2028 
C 2394 2476 1958 2816 1466 2816 
C 787 2816 211 2201 211 1379 
C 211 521 813 -64 1466 -64 
C 2259 -64 2458 676 2458 747 
C 2458 773 2451 792 2406 792 
C 2362 792 2355 786 2330 702 
C 2163 180 1798 51 1523 51 
C 1114 51 621 431 621 1385 
C 621 2358 1094 2700 1472 2700 
C 1722 2700 2093 2582 2234 2240 
z
" id="CMR17-63" transform="scale(0.015625)"/>
       <path d="M 960 1517 
C 960 2134 1222 2713 1702 2713 
C 1747 2713 1792 2707 1837 2687 
C 1837 2687 1696 2642 1696 2475 
C 1696 2321 1818 2257 1914 2257 
C 1990 2257 2131 2302 2131 2482 
C 2131 2687 1926 2816 1709 2816 
C 1222 2816 1011 2340 947 2115 
L 941 2115 
L 941 2816 
L 198 2745 
L 198 2578 
C 576 2578 634 2540 634 2231 
L 634 443 
C 634 198 608 166 198 166 
L 198 0 
C 352 12 646 12 813 12 
C 998 12 1325 12 1498 0 
L 1498 166 
C 1037 166 960 166 960 455 
L 960 1517 
z
" id="CMR17-72" transform="scale(0.015625)"/>
       <path d="M 2438 1503 
C 2464 1529 2464 1542 2464 1606 
C 2464 2251 2118 2816 1389 2816 
C 710 2816 173 2175 173 1394 
C 173 554 781 -64 1459 -64 
C 2176 -64 2458 619 2458 755 
C 2458 800 2419 800 2406 800 
C 2362 800 2355 787 2330 709 
C 2189 270 1837 51 1504 51 
C 1229 51 954 206 781 490 
C 582 819 582 1200 582 1503 
L 2438 1503 
z
M 589 1600 
C 634 2511 1126 2713 1382 2713 
C 1818 2713 2112 2308 2118 1600 
L 589 1600 
z
" id="CMR17-65" transform="scale(0.015625)"/>
       <path d="M 979 4416 
L 218 4345 
L 218 4179 
C 595 4179 653 4141 653 3835 
L 653 439 
C 653 198 627 166 218 166 
L 218 0 
C 371 12 653 12 813 12 
C 979 12 1261 12 1414 0 
L 1414 166 
C 1005 166 979 191 979 439 
L 979 4416 
z
" id="CMR17-6c" transform="scale(0.015625)"/>
       <path d="M 2304 1656 
C 2304 2048 2304 2275 2035 2534 
C 1798 2751 1523 2816 1306 2816 
C 800 2816 435 2408 435 1977 
C 435 1740 627 1728 666 1728 
C 749 1728 896 1779 896 1958 
C 896 2118 774 2188 666 2188 
C 640 2188 608 2182 589 2176 
C 723 2594 1069 2713 1293 2713 
C 1613 2713 1965 2421 1965 1875 
L 1965 1632 
C 1587 1619 1133 1568 774 1373 
C 371 1147 256 822 256 576 
C 256 77 832 -64 1171 -64 
C 1523 -64 1850 135 1990 505 
C 2003 219 2182 -39 2464 -39 
C 2598 -39 2938 51 2938 563 
L 2938 926 
L 2822 926 
L 2822 557 
C 2822 161 2650 109 2566 109 
C 2304 109 2304 446 2304 732 
L 2304 1656 
z
M 1965 887 
C 1965 323 1568 38 1216 38 
C 896 38 646 278 646 576 
C 646 771 730 1114 1101 1322 
C 1408 1497 1760 1523 1965 1536 
L 1965 887 
z
" id="CMR17-61" transform="scale(0.015625)"/>
       <path d="M 992 3961 
C 992 4102 877 4224 730 4224 
C 589 4224 467 4108 467 3961 
C 467 3820 582 3699 730 3699 
C 870 3699 992 3814 992 3961 
z
M 243 2745 
L 243 2579 
C 602 2579 653 2540 653 2231 
L 653 443 
C 653 198 627 166 218 166 
L 218 0 
C 371 12 646 12 806 12 
C 960 12 1222 12 1370 0 
L 1370 166 
C 992 166 979 205 979 436 
L 979 2816 
L 243 2745 
z
" id="CMR17-69" transform="scale(0.015625)"/>
       <path d="M 2656 1954 
C 2656 2282 2592 2816 1837 2816 
C 1331 2816 1069 2424 973 2166 
L 966 2166 
L 966 2816 
L 211 2745 
L 211 2578 
C 589 2578 646 2540 646 2231 
L 646 443 
C 646 198 621 166 211 166 
L 211 0 
C 365 12 646 12 813 12 
C 979 12 1267 12 1421 0 
L 1421 166 
C 1011 166 986 192 986 443 
L 986 1678 
C 986 2269 1344 2713 1792 2713 
C 2266 2713 2317 2289 2317 1980 
L 2317 443 
C 2317 198 2291 166 1882 166 
L 1882 0 
C 2035 12 2317 12 2483 12 
C 2650 12 2938 12 3091 0 
L 3091 166 
C 2682 166 2656 192 2656 443 
L 2656 1954 
z
" id="CMR17-6e" transform="scale(0.015625)"/>
       <path d="M 3981 4332 
L 288 4332 
L 179 2924 
L 294 2924 
C 378 3981 467 4166 1453 4166 
C 1568 4166 1754 4166 1805 4159 
C 1926 4140 1926 4064 1926 3917 
L 1926 465 
C 1926 236 1907 166 1376 166 
L 1197 166 
L 1197 0 
C 1504 6 1824 12 2138 12 
C 2451 12 2771 6 3078 0 
L 3078 166 
L 2899 166 
C 2368 166 2349 236 2349 465 
L 2349 3917 
C 2349 4057 2349 4134 2464 4159 
C 2515 4166 2701 4166 2816 4166 
C 3795 4166 3891 3981 3974 2924 
L 4090 2924 
L 3981 4332 
z
" id="CMR17-54" transform="scale(0.015625)"/>
       <path d="M 4326 1954 
C 4326 2276 4269 2816 3507 2816 
C 3072 2816 2771 2520 2656 2173 
L 2650 2173 
C 2573 2700 2195 2816 1837 2816 
C 1331 2816 1069 2424 973 2166 
L 966 2166 
L 966 2816 
L 211 2745 
L 211 2578 
C 589 2578 646 2540 646 2231 
L 646 443 
C 646 198 621 166 211 166 
L 211 0 
C 365 12 646 12 813 12 
C 979 12 1267 12 1421 0 
L 1421 166 
C 1011 166 986 192 986 443 
L 986 1678 
C 986 2269 1344 2713 1792 2713 
C 2266 2713 2317 2289 2317 1980 
L 2317 443 
C 2317 198 2291 166 1882 166 
L 1882 0 
C 2035 12 2317 12 2483 12 
C 2650 12 2938 12 3091 0 
L 3091 166 
C 2682 166 2656 192 2656 443 
L 2656 1678 
C 2656 2269 3014 2713 3462 2713 
C 3936 2713 3987 2289 3987 1980 
L 3987 443 
C 3987 198 3962 166 3552 166 
L 3552 0 
C 3706 12 3987 12 4154 12 
C 4320 12 4608 12 4762 0 
L 4762 166 
C 4352 166 4326 192 4326 443 
L 4326 1954 
z
" id="CMR17-6d" transform="scale(0.015625)"/>
       <path d="M 3110 3955 
L 4173 3955 
C 5018 3955 5338 4416 5338 4499 
C 5338 4531 5312 4544 5280 4544 
C 5210 4544 5043 4480 4883 4379 
C 4832 4352 4819 4352 4698 4352 
L 1901 4352 
C 1107 4352 218 3668 218 3146 
C 218 3108 218 3070 269 3070 
C 422 3070 826 3280 838 3433 
C 845 3541 858 3662 986 3827 
C 1050 3904 1101 3955 1382 3955 
L 2656 3955 
C 2547 3884 2522 3789 2509 3725 
L 1779 842 
C 1702 530 1568 128 1382 -289 
C 1344 -365 1344 -378 1344 -391 
C 1344 -429 1370 -436 1402 -436 
C 1530 -436 1843 -263 1939 -129 
C 1978 -65 2259 587 2394 1116 
L 3110 3955 
z
" id="CMSY10-54" transform="scale(0.015625)"/>
      </defs>
      <use transform="scale(0.996264)" xlink:href="#CMR17-41"/>
      <use transform="translate(69.07243 0)scale(0.996264)" xlink:href="#CMR17-75"/>
      <use transform="translate(119.9678 0)scale(0.996264)" xlink:href="#CMR17-74"/>
      <use transform="translate(155.248567 0)scale(0.996264)" xlink:href="#CMR17-6f"/>
      <use transform="translate(203.541483 0)scale(0.996264)" xlink:href="#CMR17-63"/>
      <use transform="translate(244.027144 0)scale(0.996264)" xlink:href="#CMR17-6f"/>
      <use transform="translate(289.717621 0)scale(0.996264)" xlink:href="#CMR17-72"/>
      <use transform="translate(324.998389 0)scale(0.996264)" xlink:href="#CMR17-72"/>
      <use transform="translate(360.279156 0)scale(0.996264)" xlink:href="#CMR17-65"/>
      <use transform="translate(400.764817 0)scale(0.996264)" xlink:href="#CMR17-6c"/>
      <use transform="translate(425.635875 0)scale(0.996264)" xlink:href="#CMR17-61"/>
      <use transform="translate(471.326352 0)scale(0.996264)" xlink:href="#CMR17-74"/>
      <use transform="translate(506.60712 0)scale(0.996264)" xlink:href="#CMR17-69"/>
      <use transform="translate(531.478179 0)scale(0.996264)" xlink:href="#CMR17-6f"/>
      <use transform="translate(577.168656 0)scale(0.996264)" xlink:href="#CMR17-6e"/>
      <use transform="translate(655.738034 0)scale(0.996264)" xlink:href="#CMR17-54"/>
      <use transform="translate(722.247915 0)scale(0.996264)" xlink:href="#CMR17-69"/>
      <use transform="translate(747.118973 0)scale(0.996264)" xlink:href="#CMR17-6d"/>
      <use transform="translate(824.038563 0)scale(0.996264)" xlink:href="#CMR17-65"/>
      <use transform="translate(919.872241 0)scale(0.996264)" xlink:href="#CMSY10-54"/>
     </g>
    </g>
   </g>
   <g id="patch_3">
    <path d="M 34.621279 116.316973 
L 34.621279 3.6 
" style="fill:none;stroke:#000000;stroke-linecap:square;stroke-linejoin:miter;stroke-width:0.5;"/>
   </g>
   <g id="patch_4">
    <path d="M 219.57552 116.316973 
L 219.57552 3.6 
" style="fill:none;stroke:#000000;stroke-linecap:square;stroke-linejoin:miter;stroke-width:0.5;"/>
   </g>
   <g id="patch_5">
    <path d="M 34.621279 116.316973 
L 219.57552 116.316973 
" style="fill:none;stroke:#000000;stroke-linecap:square;stroke-linejoin:miter;stroke-width:0.5;"/>
   </g>
   <g id="patch_6">
    <path d="M 34.621279 3.6 
L 219.57552 3.6 
" style="fill:none;stroke:#000000;stroke-linecap:square;stroke-linejoin:miter;stroke-width:0.5;"/>
   </g>
   <g id="text_7">
    <!-- Kinetic -->
    <g transform="translate(190.917786 114.062633)scale(0.08 -0.08)">
     <defs>
      <path d="M 2362 2669 
L 3469 3771 
C 3699 3994 3942 4172 4301 4185 
L 4301 4352 
C 4173 4345 4013 4339 3885 4339 
C 3712 4339 3411 4339 3245 4352 
L 3245 4185 
C 3411 4172 3437 4057 3437 4013 
C 3437 3968 3411 3898 3386 3860 
L 1261 1739 
L 1261 3898 
C 1261 4185 1331 4185 1773 4185 
L 1773 4352 
C 1587 4339 1248 4339 1050 4339 
C 851 4339 512 4339 326 4352 
L 326 4185 
C 768 4185 838 4185 838 3898 
L 838 453 
C 838 166 768 166 326 166 
L 326 0 
C 512 12 851 12 1050 12 
C 1248 12 1587 12 1773 0 
L 1773 166 
C 1331 166 1261 166 1261 453 
L 1261 1580 
L 2080 2389 
L 3290 542 
C 3328 478 3373 395 3373 332 
C 3373 166 3194 166 3110 166 
L 3110 0 
C 3315 12 3610 12 3821 12 
C 3974 12 4237 12 4384 0 
L 4384 166 
C 4077 166 3981 204 3789 497 
L 2362 2669 
z
" id="CMR17-4b" transform="scale(0.015625)"/>
     </defs>
     <use transform="scale(0.996264)" xlink:href="#CMR17-4b"/>
     <use transform="translate(71.674777 0)scale(0.996264)" xlink:href="#CMR17-69"/>
     <use transform="translate(96.545836 0)scale(0.996264)" xlink:href="#CMR17-6e"/>
     <use transform="translate(147.441206 0)scale(0.996264)" xlink:href="#CMR17-65"/>
     <use transform="translate(187.926866 0)scale(0.996264)" xlink:href="#CMR17-74"/>
     <use transform="translate(223.207634 0)scale(0.996264)" xlink:href="#CMR17-69"/>
     <use transform="translate(248.078692 0)scale(0.996264)" xlink:href="#CMR17-63"/>
    </g>
   </g>
   <g id="text_8">
    <!-- ${U}/{t} = 3.3$ -->
    <g transform="translate(182.214492 88.137729)scale(0.08 -0.08)">
     <defs>
      <path d="M 3238 1469 
C 3014 579 2272 57 1670 57 
C 1210 57 896 362 896 890 
C 896 916 896 1107 966 1386 
L 1594 3886 
C 1651 4102 1664 4166 2118 4166 
C 2234 4166 2298 4166 2298 4281 
C 2298 4352 2240 4352 2202 4352 
C 2086 4352 1952 4339 1830 4339 
L 1075 4339 
C 954 4339 819 4352 698 4352 
C 653 4352 576 4352 576 4230 
C 576 4166 621 4166 742 4166 
C 1126 4166 1126 4115 1126 4045 
C 1126 4007 1082 3822 1050 3714 
L 493 1488 
C 474 1418 435 1246 435 1075 
C 435 375 941 -128 1638 -128 
C 2285 -128 3002 381 3328 1189 
C 3373 1297 3430 1520 3469 1692 
C 3533 1921 3667 2480 3712 2646 
L 3955 3600 
C 4038 3931 4090 4140 4653 4166 
C 4704 4172 4730 4223 4730 4281 
C 4730 4352 4672 4352 4646 4352 
C 4557 4352 4442 4339 4352 4339 
L 4051 4339 
C 3654 4339 3450 4352 3443 4352 
C 3405 4352 3328 4352 3328 4230 
C 3328 4166 3379 4166 3424 4166 
C 3808 4153 3834 4007 3834 3892 
C 3834 3835 3834 3816 3808 3727 
L 3238 1469 
z
" id="CMMI12-55" transform="scale(0.015625)"/>
      <path d="M 2746 4563 
C 2746 4569 2784 4665 2784 4678 
C 2784 4755 2720 4800 2669 4800 
C 2637 4800 2579 4800 2528 4659 
L 384 -1364 
C 384 -1370 346 -1466 346 -1479 
C 346 -1556 410 -1600 461 -1600 
C 499 -1600 557 -1594 602 -1460 
L 2746 4563 
z
" id="CMMI12-3d" transform="scale(0.015625)"/>
      <path d="M 1286 2566 
L 1875 2566 
C 1997 2566 2061 2566 2061 2681 
C 2061 2752 2022 2752 1894 2752 
L 1331 2752 
L 1568 3664 
C 1594 3752 1594 3764 1594 3808 
C 1594 3910 1510 3968 1427 3968 
C 1376 3968 1229 3948 1178 3746 
L 928 2752 
L 326 2752 
C 198 2752 141 2752 141 2630 
C 141 2566 186 2566 307 2566 
L 877 2566 
L 454 881 
C 403 657 384 593 384 510 
C 384 210 595 -64 954 -64 
C 1600 -64 1946 868 1946 913 
C 1946 951 1920 970 1882 970 
C 1869 970 1843 970 1830 944 
C 1824 938 1818 932 1773 830 
C 1638 510 1344 64 973 64 
C 781 64 768 223 768 364 
C 768 370 768 491 787 568 
L 1286 2566 
z
" id="CMMI12-74" transform="scale(0.015625)"/>
      <path d="M 4115 2048 
C 4211 2048 4307 2048 4307 2156 
C 4307 2272 4198 2272 4090 2272 
L 512 2272 
C 403 2272 294 2272 294 2156 
C 294 2048 390 2048 486 2048 
L 4115 2048 
z
M 4090 927 
C 4198 927 4307 927 4307 1043 
C 4307 1152 4211 1152 4115 1152 
L 486 1152 
C 390 1152 294 1152 294 1043 
C 294 927 403 927 512 927 
L 4090 927 
z
" id="CMR17-3d" transform="scale(0.015625)"/>
      <path d="M 1414 2176 
C 1984 2176 2234 1673 2234 1094 
C 2234 322 1824 25 1453 25 
C 1114 25 563 193 390 691 
C 422 678 454 678 486 678 
C 640 678 755 780 755 947 
C 755 1132 614 1216 486 1216 
C 378 1216 211 1164 211 927 
C 211 335 787 -128 1466 -128 
C 2176 -128 2720 432 2720 1087 
C 2720 1718 2208 2176 1600 2246 
C 2086 2347 2554 2776 2554 3353 
C 2554 3856 2048 4224 1472 4224 
C 890 4224 378 3862 378 3347 
C 378 3123 544 3084 627 3084 
C 762 3084 877 3167 877 3334 
C 877 3500 762 3584 627 3584 
C 602 3584 570 3584 544 3571 
C 730 3999 1235 4076 1459 4076 
C 1683 4076 2106 3966 2106 3347 
C 2106 3167 2080 2851 1862 2574 
C 1670 2329 1453 2316 1242 2297 
C 1210 2297 1062 2284 1037 2284 
C 992 2278 966 2272 966 2227 
C 966 2182 973 2176 1101 2176 
L 1414 2176 
z
" id="CMR17-33" transform="scale(0.015625)"/>
      <path d="M 1178 307 
C 1178 492 1024 620 870 620 
C 685 620 557 467 557 313 
C 557 128 710 0 864 0 
C 1050 0 1178 153 1178 307 
z
" id="CMMI12-3a" transform="scale(0.015625)"/>
     </defs>
     <use transform="scale(0.996264)" xlink:href="#CMMI12-55"/>
     <use transform="translate(71.239337 0)scale(0.996264)" xlink:href="#CMMI12-3d"/>
     <use transform="translate(120.014256 0)scale(0.996264)" xlink:href="#CMMI12-74"/>
     <use transform="translate(182.914595 0)scale(0.996264)" xlink:href="#CMR17-3d"/>
     <use transform="translate(282.303392 0)scale(0.996264)" xlink:href="#CMR17-33"/>
     <use transform="translate(327.993869 0)scale(0.996264)" xlink:href="#CMMI12-3a"/>
     <use transform="translate(355.091047 0)scale(0.996264)" xlink:href="#CMR17-33"/>
    </g>
   </g>
   <g id="text_9">
    <!-- $L=N=12$ -->
    <g transform="translate(173.345955 99.409427)scale(0.08 -0.08)">
     <defs>
      <path d="M 2349 3860 
C 2406 4102 2426 4166 2989 4166 
C 3162 4166 3206 4166 3206 4287 
C 3206 4352 3136 4352 3110 4352 
C 2982 4352 2835 4339 2707 4339 
L 1850 4339 
C 1728 4339 1587 4352 1466 4352 
C 1414 4352 1344 4352 1344 4230 
C 1344 4166 1402 4166 1498 4166 
C 1888 4166 1888 4115 1888 4045 
C 1888 4032 1888 3994 1862 3898 
L 998 472 
C 941 249 928 185 480 185 
C 358 185 294 185 294 70 
C 294 0 333 0 461 0 
L 3328 0 
C 3469 0 3475 6 3520 121 
L 4013 1478 
C 4026 1510 4038 1548 4038 1567 
C 4038 1605 4006 1631 3974 1631 
C 3968 1631 3936 1631 3923 1605 
C 3910 1599 3910 1586 3859 1465 
C 3654 905 3366 185 2285 185 
L 1670 185 
C 1581 185 1568 185 1530 191 
C 1459 198 1453 211 1453 262 
C 1453 306 1466 344 1478 402 
L 2349 3860 
z
" id="CMMI12-4c" transform="scale(0.015625)"/>
      <path d="M 4736 3682 
C 4806 3956 4909 4147 5395 4166 
C 5414 4166 5491 4172 5491 4281 
C 5491 4352 5434 4352 5408 4352 
C 5280 4352 4954 4339 4826 4339 
L 4518 4339 
C 4429 4339 4314 4352 4224 4352 
C 4186 4352 4109 4352 4109 4230 
C 4109 4166 4160 4166 4205 4166 
C 4589 4153 4614 4007 4614 3892 
C 4614 3835 4608 3816 4589 3726 
L 3866 854 
L 2496 4243 
C 2451 4345 2445 4352 2304 4352 
L 1523 4352 
C 1395 4352 1338 4352 1338 4230 
C 1338 4166 1382 4166 1504 4166 
C 1536 4166 1914 4166 1914 4109 
C 1914 4096 1901 4045 1894 4026 
L 1043 650 
C 966 338 813 204 390 185 
C 358 185 294 179 294 64 
C 294 0 358 0 378 0 
C 506 0 832 12 960 12 
L 1267 12 
C 1357 12 1466 0 1555 0 
C 1600 0 1670 0 1670 121 
C 1670 179 1606 185 1581 185 
C 1370 191 1165 230 1165 459 
C 1165 510 1178 567 1190 618 
L 2054 4026 
C 2093 3962 2093 3949 2118 3892 
L 3642 115 
C 3674 38 3686 0 3744 0 
C 3808 0 3814 19 3840 128 
L 4736 3682 
z
" id="CMMI12-4e" transform="scale(0.015625)"/>
     </defs>
     <use transform="scale(0.996264)" xlink:href="#CMMI12-4c"/>
     <use transform="translate(94.044884 0)scale(0.996264)" xlink:href="#CMR17-3d"/>
     <use transform="translate(193.433681 0)scale(0.996264)" xlink:href="#CMMI12-4e"/>
     <use transform="translate(309.629463 0)scale(0.996264)" xlink:href="#CMR17-3d"/>
     <use transform="translate(409.01826 0)scale(0.996264)" xlink:href="#CMR17-31"/>
     <use transform="translate(454.708737 0)scale(0.996264)" xlink:href="#CMR17-32"/>
    </g>
   </g>
   <g id="legend_1">
    <g id="LineCollection_3">
     <path d="M 147.546111 22.7156 
L 147.546111 14.7156 
" style="fill:none;stroke:#ffa0a0;stroke-width:0.5;"/>
    </g>
    <g id="line2d_19">
     <g>
      <use style="fill:#ffa0a0;stroke:#ffa0a0;stroke-width:0.5;" x="147.546111" xlink:href="#m62f7c93e9e" y="22.7156"/>
     </g>
    </g>
    <g id="line2d_20">
     <g>
      <use style="fill:#ffa0a0;stroke:#ffa0a0;stroke-width:0.5;" x="147.546111" xlink:href="#m62f7c93e9e" y="14.7156"/>
     </g>
    </g>
    <g id="line2d_21"/>
    <g id="line2d_22">
     <g>
      <use style="fill:#fecfcf;stroke:#ffa0a0;stroke-width:0.5;" x="147.546111" xlink:href="#mb100ec0e32" y="18.7156"/>
     </g>
    </g>
    <g id="text_10">
     <!-- Rejection -->
     <g transform="translate(156.346111 21.5156)scale(0.08 -0.08)">
      <defs>
       <path d="M 2509 2156 
C 3117 2278 3629 2689 3629 3203 
C 3629 3806 2950 4352 2054 4352 
L 333 4352 
L 333 4185 
C 774 4185 845 4185 845 3896 
L 845 428 
C 845 140 774 140 333 140 
L 333 -26 
C 518 -13 851 -13 1050 -13 
C 1248 -13 1581 -13 1766 -26 
L 1766 140 
C 1325 140 1254 140 1254 428 
L 1254 2112 
L 2003 2112 
C 2368 2112 2573 1964 2662 1881 
C 2918 1632 2918 1459 2918 1024 
C 2918 595 2918 377 3110 160 
C 3354 -103 3680 -128 3821 -128 
C 4294 -128 4365 403 4365 512 
C 4365 550 4365 595 4307 595 
C 4256 595 4250 556 4250 531 
C 4218 115 4032 -26 3834 -26 
C 3482 -26 3443 377 3405 768 
C 3386 902 3373 998 3360 1139 
C 3322 1459 3270 1926 2509 2156 
z
M 1984 2214 
L 1254 2214 
L 1254 3935 
C 1254 4153 1267 4185 1523 4185 
L 1990 4185 
C 2522 4185 3142 3999 3142 3203 
C 3142 2374 2464 2214 1984 2214 
z
" id="CMR17-52" transform="scale(0.015625)"/>
       <path d="M 1165 3961 
C 1165 4102 1050 4224 902 4224 
C 762 4224 640 4108 640 3961 
C 640 3820 755 3699 902 3699 
C 1043 3699 1165 3814 1165 3961 
z
M 365 2745 
L 365 2579 
C 787 2579 838 2533 838 2221 
L 838 -410 
C 838 -735 781 -1242 403 -1242 
C 358 -1242 186 -1236 45 -1145 
C 90 -1138 250 -1093 250 -911 
C 250 -787 166 -677 19 -677 
C -122 -677 -211 -774 -211 -917 
C -211 -1177 70 -1344 397 -1344 
C 838 -1344 1165 -937 1165 -384 
L 1165 2816 
L 365 2745 
z
" id="CMR17-6a" transform="scale(0.015625)"/>
      </defs>
      <use transform="scale(0.996264)" xlink:href="#CMR17-52"/>
      <use transform="translate(67.791102 0)scale(0.996264)" xlink:href="#CMR17-65"/>
      <use transform="translate(108.276762 0)scale(0.996264)" xlink:href="#CMR17-6a"/>
      <use transform="translate(135.750275 0)scale(0.996264)" xlink:href="#CMR17-65"/>
      <use transform="translate(176.235935 0)scale(0.996264)" xlink:href="#CMR17-63"/>
      <use transform="translate(216.721596 0)scale(0.996264)" xlink:href="#CMR17-74"/>
      <use transform="translate(252.002364 0)scale(0.996264)" xlink:href="#CMR17-69"/>
      <use transform="translate(276.873422 0)scale(0.996264)" xlink:href="#CMR17-6f"/>
      <use transform="translate(322.563899 0)scale(0.996264)" xlink:href="#CMR17-6e"/>
     </g>
    </g>
    <g id="LineCollection_4">
     <path d="M 147.546111 33.865346 
L 147.546111 25.865346 
" style="fill:none;stroke:#1e90ff;stroke-width:0.5;"/>
    </g>
    <g id="line2d_23">
     <g>
      <use style="fill:#1e90ff;stroke:#1e90ff;stroke-width:0.5;" x="147.546111" xlink:href="#m427f5d16a4" y="33.865346"/>
     </g>
    </g>
    <g id="line2d_24">
     <g>
      <use style="fill:#1e90ff;stroke:#1e90ff;stroke-width:0.5;" x="147.546111" xlink:href="#m427f5d16a4" y="25.865346"/>
     </g>
    </g>
    <g id="line2d_25"/>
    <g id="line2d_26">
     <g>
      <use style="fill:#8ec7fe;stroke:#1e90ff;stroke-width:0.5;" x="147.546111" xlink:href="#md5ef54567b" y="29.865346"/>
     </g>
    </g>
    <g id="text_11">
     <!-- Direct -->
     <g transform="translate(156.346111 32.665346)scale(0.08 -0.08)">
      <defs>
       <path d="M 333 4352 
L 333 4185 
C 774 4185 845 4185 845 3898 
L 845 453 
C 845 166 774 166 333 166 
L 333 0 
L 2368 0 
C 3398 0 4224 943 4224 2140 
C 4224 3344 3411 4352 2368 4352 
L 333 4352 
z
M 1523 166 
C 1267 166 1254 198 1254 414 
L 1254 3936 
C 1254 4153 1267 4185 1523 4185 
L 2240 4185 
C 2771 4185 3750 3873 3750 2140 
C 3750 1242 3488 879 3366 707 
C 3213 510 2848 166 2240 166 
L 1523 166 
z
" id="CMR17-44" transform="scale(0.015625)"/>
      </defs>
      <use transform="scale(0.996264)" xlink:href="#CMR17-44"/>
      <use transform="translate(70.393556 0)scale(0.996264)" xlink:href="#CMR17-69"/>
      <use transform="translate(95.264614 0)scale(0.996264)" xlink:href="#CMR17-72"/>
      <use transform="translate(130.545382 0)scale(0.996264)" xlink:href="#CMR17-65"/>
      <use transform="translate(171.031043 0)scale(0.996264)" xlink:href="#CMR17-63"/>
      <use transform="translate(211.516703 0)scale(0.996264)" xlink:href="#CMR17-74"/>
     </g>
    </g>
   </g>
  </g>
  <g id="axes_2">
   <g id="patch_7">
    <path d="M 34.621279 237.034425 
L 219.57552 237.034425 
L 219.57552 124.317453 
L 34.621279 124.317453 
z
" style="fill:none;"/>
   </g>
   <g id="LineCollection_5">
    <path clip-path="url(#pbad1ffa603)" d="M 43.02829 230.917287 
L 43.02829 230.462979 
" style="fill:none;stroke:#ffa0a0;stroke-width:0.5;"/>
    <path clip-path="url(#pbad1ffa603)" d="M 85.063345 223.766952 
L 85.063345 222.994851 
" style="fill:none;stroke:#ffa0a0;stroke-width:0.5;"/>
    <path clip-path="url(#pbad1ffa603)" d="M 127.098399 214.784955 
L 127.098399 213.578977 
" style="fill:none;stroke:#ffa0a0;stroke-width:0.5;"/>
    <path clip-path="url(#pbad1ffa603)" d="M 169.133454 195.793205 
L 169.133454 193.7031 
" style="fill:none;stroke:#ffa0a0;stroke-width:0.5;"/>
    <path clip-path="url(#pbad1ffa603)" d="M 211.168509 139.121148 
L 211.168509 129.440951 
" style="fill:none;stroke:#ffa0a0;stroke-width:0.5;"/>
   </g>
   <g id="LineCollection_6">
    <path clip-path="url(#pbad1ffa603)" d="M 43.02829 231.328095 
L 43.02829 230.911794 
" style="fill:none;stroke:#1e90ff;stroke-width:0.5;"/>
    <path clip-path="url(#pbad1ffa603)" d="M 85.063345 226.039988 
L 85.063345 225.409687 
" style="fill:none;stroke:#1e90ff;stroke-width:0.5;"/>
    <path clip-path="url(#pbad1ffa603)" d="M 127.098399 217.671838 
L 127.098399 216.723126 
" style="fill:none;stroke:#1e90ff;stroke-width:0.5;"/>
    <path clip-path="url(#pbad1ffa603)" d="M 169.133454 200.430979 
L 169.133454 198.375621 
" style="fill:none;stroke:#1e90ff;stroke-width:0.5;"/>
    <path clip-path="url(#pbad1ffa603)" d="M 211.168509 157.933272 
L 211.168509 149.592185 
" style="fill:none;stroke:#1e90ff;stroke-width:0.5;"/>
   </g>
   <g id="line2d_27">
    <g clip-path="url(#pbad1ffa603)">
     <use style="fill:#ffa0a0;stroke:#ffa0a0;stroke-width:0.5;" x="43.02829" xlink:href="#m62f7c93e9e" y="230.917287"/>
     <use style="fill:#ffa0a0;stroke:#ffa0a0;stroke-width:0.5;" x="85.063345" xlink:href="#m62f7c93e9e" y="223.766952"/>
     <use style="fill:#ffa0a0;stroke:#ffa0a0;stroke-width:0.5;" x="127.098399" xlink:href="#m62f7c93e9e" y="214.784955"/>
     <use style="fill:#ffa0a0;stroke:#ffa0a0;stroke-width:0.5;" x="169.133454" xlink:href="#m62f7c93e9e" y="195.793205"/>
     <use style="fill:#ffa0a0;stroke:#ffa0a0;stroke-width:0.5;" x="211.168509" xlink:href="#m62f7c93e9e" y="139.121148"/>
    </g>
   </g>
   <g id="line2d_28">
    <g clip-path="url(#pbad1ffa603)">
     <use style="fill:#ffa0a0;stroke:#ffa0a0;stroke-width:0.5;" x="43.02829" xlink:href="#m62f7c93e9e" y="230.462979"/>
     <use style="fill:#ffa0a0;stroke:#ffa0a0;stroke-width:0.5;" x="85.063345" xlink:href="#m62f7c93e9e" y="222.994851"/>
     <use style="fill:#ffa0a0;stroke:#ffa0a0;stroke-width:0.5;" x="127.098399" xlink:href="#m62f7c93e9e" y="213.578977"/>
     <use style="fill:#ffa0a0;stroke:#ffa0a0;stroke-width:0.5;" x="169.133454" xlink:href="#m62f7c93e9e" y="193.7031"/>
     <use style="fill:#ffa0a0;stroke:#ffa0a0;stroke-width:0.5;" x="211.168509" xlink:href="#m62f7c93e9e" y="129.440951"/>
    </g>
   </g>
   <g id="line2d_29">
    <path clip-path="url(#pbad1ffa603)" d="M 43.02829 230.690133 
L 85.063345 223.380902 
L 127.098399 214.181966 
L 169.133454 194.748152 
L 211.168509 134.281049 
" style="fill:none;stroke:#ffa0a0;stroke-dasharray:1.85,0.8;stroke-dashoffset:0;stroke-linecap:round;stroke-width:0.5;"/>
   </g>
   <g id="line2d_30">
    <g clip-path="url(#pbad1ffa603)">
     <use style="fill:#1e90ff;stroke:#1e90ff;stroke-width:0.5;" x="43.02829" xlink:href="#m427f5d16a4" y="231.328095"/>
     <use style="fill:#1e90ff;stroke:#1e90ff;stroke-width:0.5;" x="85.063345" xlink:href="#m427f5d16a4" y="226.039988"/>
     <use style="fill:#1e90ff;stroke:#1e90ff;stroke-width:0.5;" x="127.098399" xlink:href="#m427f5d16a4" y="217.671838"/>
     <use style="fill:#1e90ff;stroke:#1e90ff;stroke-width:0.5;" x="169.133454" xlink:href="#m427f5d16a4" y="200.430979"/>
     <use style="fill:#1e90ff;stroke:#1e90ff;stroke-width:0.5;" x="211.168509" xlink:href="#m427f5d16a4" y="157.933272"/>
    </g>
   </g>
   <g id="line2d_31">
    <g clip-path="url(#pbad1ffa603)">
     <use style="fill:#1e90ff;stroke:#1e90ff;stroke-width:0.5;" x="43.02829" xlink:href="#m427f5d16a4" y="230.911794"/>
     <use style="fill:#1e90ff;stroke:#1e90ff;stroke-width:0.5;" x="85.063345" xlink:href="#m427f5d16a4" y="225.409687"/>
     <use style="fill:#1e90ff;stroke:#1e90ff;stroke-width:0.5;" x="127.098399" xlink:href="#m427f5d16a4" y="216.723126"/>
     <use style="fill:#1e90ff;stroke:#1e90ff;stroke-width:0.5;" x="169.133454" xlink:href="#m427f5d16a4" y="198.375621"/>
     <use style="fill:#1e90ff;stroke:#1e90ff;stroke-width:0.5;" x="211.168509" xlink:href="#m427f5d16a4" y="149.592185"/>
    </g>
   </g>
   <g id="line2d_32">
    <path clip-path="url(#pbad1ffa603)" d="M 43.02829 231.119945 
L 85.063345 225.724838 
L 127.098399 217.197482 
L 169.133454 199.4033 
L 211.168509 153.762728 
" style="fill:none;stroke:#1e90ff;stroke-dasharray:1.85,0.8;stroke-dashoffset:0;stroke-linecap:round;stroke-width:0.5;"/>
   </g>
   <g id="line2d_33">
    <g clip-path="url(#pbad1ffa603)">
     <use style="fill:#fecfcf;stroke:#ffa0a0;stroke-width:0.5;" x="43.02829" xlink:href="#mb100ec0e32" y="230.690133"/>
     <use style="fill:#fecfcf;stroke:#ffa0a0;stroke-width:0.5;" x="85.063345" xlink:href="#mb100ec0e32" y="223.380902"/>
     <use style="fill:#fecfcf;stroke:#ffa0a0;stroke-width:0.5;" x="127.098399" xlink:href="#mb100ec0e32" y="214.181966"/>
     <use style="fill:#fecfcf;stroke:#ffa0a0;stroke-width:0.5;" x="169.133454" xlink:href="#mb100ec0e32" y="194.748152"/>
     <use style="fill:#fecfcf;stroke:#ffa0a0;stroke-width:0.5;" x="211.168509" xlink:href="#mb100ec0e32" y="134.281049"/>
    </g>
   </g>
   <g id="line2d_34">
    <g clip-path="url(#pbad1ffa603)">
     <use style="fill:#8ec7fe;stroke:#1e90ff;stroke-width:0.5;" x="43.02829" xlink:href="#md5ef54567b" y="231.119945"/>
     <use style="fill:#8ec7fe;stroke:#1e90ff;stroke-width:0.5;" x="85.063345" xlink:href="#md5ef54567b" y="225.724838"/>
     <use style="fill:#8ec7fe;stroke:#1e90ff;stroke-width:0.5;" x="127.098399" xlink:href="#md5ef54567b" y="217.197482"/>
     <use style="fill:#8ec7fe;stroke:#1e90ff;stroke-width:0.5;" x="169.133454" xlink:href="#md5ef54567b" y="199.4033"/>
     <use style="fill:#8ec7fe;stroke:#1e90ff;stroke-width:0.5;" x="211.168509" xlink:href="#md5ef54567b" y="153.762728"/>
    </g>
   </g>
   <g id="matplotlib.axis_3">
    <g id="xtick_6">
     <g id="line2d_35">
      <g>
       <use style="stroke:#000000;stroke-width:0.35;" x="43.02829" xlink:href="#mab065f19c9" y="237.034425"/>
      </g>
     </g>
     <g id="text_12">
      <!-- $\mathdefault{2^{1}}$ -->
      <g transform="translate(39.084742 247.569227)scale(0.08 -0.08)">
       <use transform="scale(0.996264)" xlink:href="#CMR17-32"/>
       <use transform="translate(45.690477 36.153639)scale(0.697382)" xlink:href="#CMR17-31"/>
      </g>
     </g>
    </g>
    <g id="xtick_7">
     <g id="line2d_36">
      <g>
       <use style="stroke:#000000;stroke-width:0.35;" x="85.063345" xlink:href="#mab065f19c9" y="237.034425"/>
      </g>
     </g>
     <g id="text_13">
      <!-- $\mathdefault{2^{2}}$ -->
      <g transform="translate(81.119797 247.569227)scale(0.08 -0.08)">
       <use transform="scale(0.996264)" xlink:href="#CMR17-32"/>
       <use transform="translate(45.690477 36.153639)scale(0.697382)" xlink:href="#CMR17-32"/>
      </g>
     </g>
    </g>
    <g id="xtick_8">
     <g id="line2d_37">
      <g>
       <use style="stroke:#000000;stroke-width:0.35;" x="127.098399" xlink:href="#mab065f19c9" y="237.034425"/>
      </g>
     </g>
     <g id="text_14">
      <!-- $\mathdefault{2^{3}}$ -->
      <g transform="translate(123.154852 247.569227)scale(0.08 -0.08)">
       <use transform="scale(0.996264)" xlink:href="#CMR17-32"/>
       <use transform="translate(45.690477 36.153639)scale(0.697382)" xlink:href="#CMR17-33"/>
      </g>
     </g>
    </g>
    <g id="xtick_9">
     <g id="line2d_38">
      <g>
       <use style="stroke:#000000;stroke-width:0.35;" x="169.133454" xlink:href="#mab065f19c9" y="237.034425"/>
      </g>
     </g>
     <g id="text_15">
      <!-- $\mathdefault{2^{4}}$ -->
      <g transform="translate(165.189907 247.569227)scale(0.08 -0.08)">
       <defs>
        <path d="M 2150 4147 
C 2150 4281 2144 4288 2029 4288 
L 128 1254 
L 128 1088 
L 1779 1088 
L 1779 460 
C 1779 230 1766 166 1318 166 
L 1197 166 
L 1197 0 
C 1402 12 1747 12 1965 12 
C 2182 12 2528 12 2733 0 
L 2733 166 
L 2611 166 
C 2163 166 2150 230 2150 460 
L 2150 1088 
L 2803 1088 
L 2803 1254 
L 2150 1254 
L 2150 4147 
z
M 1798 3723 
L 1798 1254 
L 256 1254 
L 1798 3723 
z
" id="CMR17-34" transform="scale(0.015625)"/>
       </defs>
       <use transform="scale(0.996264)" xlink:href="#CMR17-32"/>
       <use transform="translate(45.690477 36.153639)scale(0.697382)" xlink:href="#CMR17-34"/>
      </g>
     </g>
    </g>
    <g id="xtick_10">
     <g id="line2d_39">
      <g>
       <use style="stroke:#000000;stroke-width:0.35;" x="211.168509" xlink:href="#mab065f19c9" y="237.034425"/>
      </g>
     </g>
     <g id="text_16">
      <!-- $\mathdefault{2^{5}}$ -->
      <g transform="translate(207.224961 247.569227)scale(0.08 -0.08)">
       <use transform="scale(0.996264)" xlink:href="#CMR17-32"/>
       <use transform="translate(45.690477 36.153639)scale(0.697382)" xlink:href="#CMR17-35"/>
      </g>
     </g>
    </g>
    <g id="text_17">
     <!-- $\rm{Projection\;Length}\;\;\beta$ -->
     <g transform="translate(88.967928 256.653774)scale(0.08 -0.08)">
      <defs>
       <path d="M 1267 2048 
L 2291 2048 
C 3117 2048 3718 2583 3718 3187 
C 3718 3791 3130 4352 2291 4352 
L 333 4352 
L 333 4185 
C 774 4185 845 4185 845 3899 
L 845 453 
C 845 166 774 166 333 166 
L 333 0 
C 518 12 858 12 1056 12 
C 1254 12 1594 12 1779 0 
L 1779 166 
C 1338 166 1267 166 1267 453 
L 1267 2048 
z
M 1254 2182 
L 1254 3937 
C 1254 4153 1267 4185 1523 4185 
L 2170 4185 
C 2995 4185 3232 3715 3232 3187 
C 3232 2608 2950 2182 2170 2182 
L 1254 2182 
z
" id="CMR17-50" transform="scale(0.015625)"/>
       <path d="M 3469 1612 
L 3354 1612 
C 3302 981 3219 166 2125 166 
L 1530 166 
C 1274 166 1261 198 1261 414 
L 1261 3892 
C 1261 4121 1274 4185 1760 4185 
L 1901 4185 
L 1901 4352 
C 1638 4339 1331 4339 1069 4339 
C 870 4339 512 4339 326 4352 
L 326 4185 
C 768 4185 838 4185 838 3898 
L 838 453 
C 838 166 768 166 326 166 
L 326 0 
L 3315 0 
L 3469 1612 
z
" id="CMR17-4c" transform="scale(0.015625)"/>
       <path d="M 710 1165 
C 832 1068 1043 960 1299 960 
C 1805 960 2240 1359 2240 1895 
C 2240 2063 2189 2321 1997 2521 
C 2176 2713 2438 2777 2586 2777 
C 2611 2777 2650 2777 2682 2758 
C 2656 2751 2598 2726 2598 2623 
C 2598 2540 2656 2483 2739 2483 
C 2835 2483 2886 2547 2886 2630 
C 2886 2751 2790 2880 2586 2880 
C 2330 2880 2106 2758 1926 2591 
C 1734 2764 1504 2828 1299 2828 
C 794 2828 358 2431 358 1895 
C 358 1527 570 1294 634 1230 
C 442 1004 442 742 442 710 
C 442 544 506 300 723 166 
C 390 82 128 -184 128 -517 
C 128 -996 736 -1344 1466 -1344 
C 2170 -1344 2803 -1009 2803 -510 
C 2803 384 1856 384 1363 384 
C 1216 384 954 384 922 390 
C 723 422 589 601 589 825 
C 589 883 589 1024 710 1165 
z
M 1299 1068 
C 736 1068 736 1766 736 1895 
C 736 2024 736 2719 1299 2719 
C 1862 2719 1862 2024 1862 1895 
C 1862 1766 1862 1068 1299 1068 
z
M 1466 -1236 
C 826 -1236 384 -883 384 -517 
C 384 -311 493 -118 634 -11 
C 794 102 858 102 1293 102 
C 1818 102 2547 102 2547 -517 
C 2547 -883 2106 -1236 1466 -1236 
z
" id="CMR17-67" transform="scale(0.015625)"/>
       <path d="M 2656 1954 
C 2656 2282 2592 2816 1837 2816 
C 1312 2816 1056 2392 979 2179 
L 973 2179 
L 973 4416 
L 211 4345 
L 211 4179 
C 589 4179 646 4141 646 3843 
L 646 443 
C 646 198 621 166 211 166 
L 211 0 
C 365 12 646 12 813 12 
C 979 12 1267 12 1421 0 
L 1421 166 
C 1011 166 986 192 986 443 
L 986 1678 
C 986 2269 1344 2713 1792 2713 
C 2266 2713 2317 2289 2317 1980 
L 2317 443 
C 2317 198 2291 166 1882 166 
L 1882 0 
C 2035 12 2317 12 2483 12 
C 2650 12 2938 12 3091 0 
L 3091 166 
C 2682 166 2656 192 2656 443 
L 2656 1954 
z
" id="CMR17-68" transform="scale(0.015625)"/>
       <path d="M 3622 3739 
C 3622 4131 3296 4544 2714 4544 
C 1888 4544 1363 3510 1197 2830 
L 186 -1152 
C 173 -1204 211 -1216 243 -1216 
C 288 -1216 320 -1210 326 -1178 
L 774 592 
C 838 231 1190 -64 1568 -64 
C 2483 -64 3347 657 3347 1618 
C 3347 1863 3290 2108 3155 2314 
C 3078 2437 2982 2527 2880 2599 
C 3341 2823 3622 3222 3622 3739 
z
M 2509 2605 
C 2406 2571 2304 2560 2182 2560 
C 2093 2560 2010 2553 1894 2588 
C 1958 2627 2054 2639 2189 2639 
C 2304 2639 2419 2627 2509 2605 
z
M 3290 3798 
C 3290 3438 3117 2915 2701 2684 
C 2579 2723 2413 2752 2272 2752 
C 2138 2752 1754 2765 1754 2582 
C 1754 2411 2106 2430 2214 2430 
C 2381 2430 2528 2469 2682 2514 
C 2886 2347 2976 2127 2976 1805 
C 2976 1431 2874 1128 2752 850 
C 2541 373 2042 64 1600 64 
C 1133 64 890 438 890 876 
C 890 934 890 1018 915 1115 
L 1331 2784 
C 1542 3641 2080 4413 2701 4413 
C 3162 4413 3290 4086 3290 3798 
z
" id="CMMI12-c" transform="scale(0.015625)"/>
      </defs>
      <use transform="scale(0.996264)" xlink:href="#CMR17-50"/>
      <use transform="translate(62.586301 0)scale(0.996264)" xlink:href="#CMR17-72"/>
      <use transform="translate(97.867068 0)scale(0.996264)" xlink:href="#CMR17-6f"/>
      <use transform="translate(148.762347 0)scale(0.996264)" xlink:href="#CMR17-6a"/>
      <use transform="translate(176.235859 0)scale(0.996264)" xlink:href="#CMR17-65"/>
      <use transform="translate(216.72152 0)scale(0.996264)" xlink:href="#CMR17-63"/>
      <use transform="translate(257.20718 0)scale(0.996264)" xlink:href="#CMR17-74"/>
      <use transform="translate(292.487948 0)scale(0.996264)" xlink:href="#CMR17-69"/>
      <use transform="translate(317.359007 0)scale(0.996264)" xlink:href="#CMR17-6f"/>
      <use transform="translate(363.049484 0)scale(0.996264)" xlink:href="#CMR17-6e"/>
      <use transform="translate(441.618862 0)scale(0.996264)" xlink:href="#CMR17-4c"/>
      <use transform="translate(499.00027 0)scale(0.996264)" xlink:href="#CMR17-65"/>
      <use transform="translate(539.48593 0)scale(0.996264)" xlink:href="#CMR17-6e"/>
      <use transform="translate(590.3813 0)scale(0.996264)" xlink:href="#CMR17-67"/>
      <use transform="translate(636.071777 0)scale(0.996264)" xlink:href="#CMR17-74"/>
      <use transform="translate(671.352545 0)scale(0.996264)" xlink:href="#CMR17-68"/>
      <use transform="translate(777.595932 0)scale(0.996264)" xlink:href="#CMMI12-c"/>
     </g>
    </g>
   </g>
   <g id="matplotlib.axis_4">
    <g id="ytick_6">
     <g id="line2d_40">
      <g>
       <use style="stroke:#000000;stroke-width:0.35;" x="34.621279" xlink:href="#m49edad2543" y="221.178608"/>
      </g>
     </g>
     <g id="text_18">
      <!-- $\mathdefault{500}$ -->
      <g transform="translate(16.91873 223.946009)scale(0.08 -0.08)">
       <use transform="scale(0.996264)" xlink:href="#CMR17-35"/>
       <use transform="translate(45.690477 0)scale(0.996264)" xlink:href="#CMR17-30"/>
       <use transform="translate(91.380954 0)scale(0.996264)" xlink:href="#CMR17-30"/>
      </g>
     </g>
    </g>
    <g id="ytick_7">
     <g id="line2d_41">
      <g>
       <use style="stroke:#000000;stroke-width:0.35;" x="34.621279" xlink:href="#m49edad2543" y="201.641737"/>
      </g>
     </g>
     <g id="text_19">
      <!-- $\mathdefault{1000}$ -->
      <g transform="translate(12.684547 204.409138)scale(0.08 -0.08)">
       <use transform="scale(0.996264)" xlink:href="#CMR17-31"/>
       <use transform="translate(45.690477 0)scale(0.996264)" xlink:href="#CMR17-30"/>
       <use transform="translate(91.380954 0)scale(0.996264)" xlink:href="#CMR17-30"/>
       <use transform="translate(137.071431 0)scale(0.996264)" xlink:href="#CMR17-30"/>
      </g>
     </g>
    </g>
    <g id="ytick_8">
     <g id="line2d_42">
      <g>
       <use style="stroke:#000000;stroke-width:0.35;" x="34.621279" xlink:href="#m49edad2543" y="182.104867"/>
      </g>
     </g>
     <g id="text_20">
      <!-- $\mathdefault{1500}$ -->
      <g transform="translate(12.684547 184.872268)scale(0.08 -0.08)">
       <use transform="scale(0.996264)" xlink:href="#CMR17-31"/>
       <use transform="translate(45.690477 0)scale(0.996264)" xlink:href="#CMR17-35"/>
       <use transform="translate(91.380954 0)scale(0.996264)" xlink:href="#CMR17-30"/>
       <use transform="translate(137.071431 0)scale(0.996264)" xlink:href="#CMR17-30"/>
      </g>
     </g>
    </g>
    <g id="ytick_9">
     <g id="line2d_43">
      <g>
       <use style="stroke:#000000;stroke-width:0.35;" x="34.621279" xlink:href="#m49edad2543" y="162.567996"/>
      </g>
     </g>
     <g id="text_21">
      <!-- $\mathdefault{2000}$ -->
      <g transform="translate(12.684547 165.335397)scale(0.08 -0.08)">
       <use transform="scale(0.996264)" xlink:href="#CMR17-32"/>
       <use transform="translate(45.690477 0)scale(0.996264)" xlink:href="#CMR17-30"/>
       <use transform="translate(91.380954 0)scale(0.996264)" xlink:href="#CMR17-30"/>
       <use transform="translate(137.071431 0)scale(0.996264)" xlink:href="#CMR17-30"/>
      </g>
     </g>
    </g>
    <g id="ytick_10">
     <g id="line2d_44">
      <g>
       <use style="stroke:#000000;stroke-width:0.35;" x="34.621279" xlink:href="#m49edad2543" y="143.031125"/>
      </g>
     </g>
     <g id="text_22">
      <!-- $\mathdefault{2500}$ -->
      <g transform="translate(12.684547 145.798526)scale(0.08 -0.08)">
       <use transform="scale(0.996264)" xlink:href="#CMR17-32"/>
       <use transform="translate(45.690477 0)scale(0.996264)" xlink:href="#CMR17-35"/>
       <use transform="translate(91.380954 0)scale(0.996264)" xlink:href="#CMR17-30"/>
       <use transform="translate(137.071431 0)scale(0.996264)" xlink:href="#CMR17-30"/>
      </g>
     </g>
    </g>
    <g id="text_23">
     <!-- $\rm{Autocorrelation\;Time}\;\; \mathcal{T}$ -->
     <g transform="translate(9.134802 225.357048)rotate(-90)scale(0.08 -0.08)">
      <use transform="scale(0.996264)" xlink:href="#CMR17-41"/>
      <use transform="translate(69.07243 0)scale(0.996264)" xlink:href="#CMR17-75"/>
      <use transform="translate(119.9678 0)scale(0.996264)" xlink:href="#CMR17-74"/>
      <use transform="translate(155.248567 0)scale(0.996264)" xlink:href="#CMR17-6f"/>
      <use transform="translate(203.541483 0)scale(0.996264)" xlink:href="#CMR17-63"/>
      <use transform="translate(244.027144 0)scale(0.996264)" xlink:href="#CMR17-6f"/>
      <use transform="translate(289.717621 0)scale(0.996264)" xlink:href="#CMR17-72"/>
      <use transform="translate(324.998389 0)scale(0.996264)" xlink:href="#CMR17-72"/>
      <use transform="translate(360.279156 0)scale(0.996264)" xlink:href="#CMR17-65"/>
      <use transform="translate(400.764817 0)scale(0.996264)" xlink:href="#CMR17-6c"/>
      <use transform="translate(425.635875 0)scale(0.996264)" xlink:href="#CMR17-61"/>
      <use transform="translate(471.326352 0)scale(0.996264)" xlink:href="#CMR17-74"/>
      <use transform="translate(506.60712 0)scale(0.996264)" xlink:href="#CMR17-69"/>
      <use transform="translate(531.478179 0)scale(0.996264)" xlink:href="#CMR17-6f"/>
      <use transform="translate(577.168656 0)scale(0.996264)" xlink:href="#CMR17-6e"/>
      <use transform="translate(655.738034 0)scale(0.996264)" xlink:href="#CMR17-54"/>
      <use transform="translate(722.247915 0)scale(0.996264)" xlink:href="#CMR17-69"/>
      <use transform="translate(747.118973 0)scale(0.996264)" xlink:href="#CMR17-6d"/>
      <use transform="translate(824.038563 0)scale(0.996264)" xlink:href="#CMR17-65"/>
      <use transform="translate(919.872241 0)scale(0.996264)" xlink:href="#CMSY10-54"/>
     </g>
    </g>
   </g>
   <g id="patch_8">
    <path d="M 34.621279 237.034425 
L 34.621279 124.317453 
" style="fill:none;stroke:#000000;stroke-linecap:square;stroke-linejoin:miter;stroke-width:0.5;"/>
   </g>
   <g id="patch_9">
    <path d="M 219.57552 237.034425 
L 219.57552 124.317453 
" style="fill:none;stroke:#000000;stroke-linecap:square;stroke-linejoin:miter;stroke-width:0.5;"/>
   </g>
   <g id="patch_10">
    <path d="M 34.621279 237.034425 
L 219.57552 237.034425 
" style="fill:none;stroke:#000000;stroke-linecap:square;stroke-linejoin:miter;stroke-width:0.5;"/>
   </g>
   <g id="patch_11">
    <path d="M 34.621279 124.317453 
L 219.57552 124.317453 
" style="fill:none;stroke:#000000;stroke-linecap:square;stroke-linejoin:miter;stroke-width:0.5;"/>
   </g>
   <g id="text_24">
    <!-- $\rm{Potential}$ -->
    <g transform="translate(184.209513 234.780086)scale(0.08 -0.08)">
     <use transform="scale(0.996264)" xlink:href="#CMR17-50"/>
     <use transform="translate(59.983847 0)scale(0.996264)" xlink:href="#CMR17-6f"/>
     <use transform="translate(105.674324 0)scale(0.996264)" xlink:href="#CMR17-74"/>
     <use transform="translate(140.955092 0)scale(0.996264)" xlink:href="#CMR17-65"/>
     <use transform="translate(181.440752 0)scale(0.996264)" xlink:href="#CMR17-6e"/>
     <use transform="translate(229.733668 0)scale(0.996264)" xlink:href="#CMR17-74"/>
     <use transform="translate(265.014436 0)scale(0.996264)" xlink:href="#CMR17-69"/>
     <use transform="translate(289.885494 0)scale(0.996264)" xlink:href="#CMR17-61"/>
     <use transform="translate(335.575971 0)scale(0.996264)" xlink:href="#CMR17-6c"/>
    </g>
   </g>
  </g>
  <g id="axes_3">
   <g id="patch_12">
    <path d="M 64.9728 55.3266 
L 133.212662 55.3266 
L 133.212662 5.81184 
L 64.9728 5.81184 
z
" style="fill:none;"/>
   </g>
   <g id="LineCollection_7">
    <path clip-path="url(#p2330c94e90)" d="M 68.074612 18.837246 
L 68.074612 8.062511 
" style="fill:none;stroke:#9370da;stroke-width:0.5;"/>
    <path clip-path="url(#p2330c94e90)" d="M 72.210361 38.018781 
L 72.210361 27.900793 
" style="fill:none;stroke:#9370da;stroke-width:0.5;"/>
    <path clip-path="url(#p2330c94e90)" d="M 80.48186 33.483125 
L 80.48186 23.456198 
" style="fill:none;stroke:#9370da;stroke-width:0.5;"/>
    <path clip-path="url(#p2330c94e90)" d="M 97.024856 32.293044 
L 97.024856 22.262487 
" style="fill:none;stroke:#9370da;stroke-width:0.5;"/>
    <path clip-path="url(#p2330c94e90)" d="M 130.11085 53.075929 
L 130.11085 34.590857 
" style="fill:none;stroke:#9370da;stroke-width:0.5;"/>
   </g>
   <g id="line2d_45">
    <defs>
     <path d="M 2 0 
L -2 -0 
" id="mdce42de68d" style="stroke:#9370da;stroke-width:0.5;"/>
    </defs>
    <g clip-path="url(#p2330c94e90)">
     <use style="fill:#9370da;stroke:#9370da;stroke-width:0.5;" x="68.074612" xlink:href="#mdce42de68d" y="18.837246"/>
     <use style="fill:#9370da;stroke:#9370da;stroke-width:0.5;" x="72.210361" xlink:href="#mdce42de68d" y="38.018781"/>
     <use style="fill:#9370da;stroke:#9370da;stroke-width:0.5;" x="80.48186" xlink:href="#mdce42de68d" y="33.483125"/>
     <use style="fill:#9370da;stroke:#9370da;stroke-width:0.5;" x="97.024856" xlink:href="#mdce42de68d" y="32.293044"/>
     <use style="fill:#9370da;stroke:#9370da;stroke-width:0.5;" x="130.11085" xlink:href="#mdce42de68d" y="53.075929"/>
    </g>
   </g>
   <g id="line2d_46">
    <g clip-path="url(#p2330c94e90)">
     <use style="fill:#9370da;stroke:#9370da;stroke-width:0.5;" x="68.074612" xlink:href="#mdce42de68d" y="8.062511"/>
     <use style="fill:#9370da;stroke:#9370da;stroke-width:0.5;" x="72.210361" xlink:href="#mdce42de68d" y="27.900793"/>
     <use style="fill:#9370da;stroke:#9370da;stroke-width:0.5;" x="80.48186" xlink:href="#mdce42de68d" y="23.456198"/>
     <use style="fill:#9370da;stroke:#9370da;stroke-width:0.5;" x="97.024856" xlink:href="#mdce42de68d" y="22.262487"/>
     <use style="fill:#9370da;stroke:#9370da;stroke-width:0.5;" x="130.11085" xlink:href="#mdce42de68d" y="34.590857"/>
    </g>
   </g>
   <g id="line2d_47">
    <defs>
     <path d="M 0 1 
C 0.265203 1 0.51958 0.894634 0.707107 0.707107 
C 0.894634 0.51958 1 0.265203 1 0 
C 1 -0.265203 0.894634 -0.51958 0.707107 -0.707107 
C 0.51958 -0.894634 0.265203 -1 0 -1 
C -0.265203 -1 -0.51958 -0.894634 -0.707107 -0.707107 
C -0.894634 -0.51958 -1 -0.265203 -1 0 
C -1 0.265203 -0.894634 0.51958 -0.707107 0.707107 
C -0.51958 0.894634 -0.265203 1 0 1 
z
" id="md345c2539c" style="stroke:#9370da;stroke-width:0.5;"/>
    </defs>
    <g clip-path="url(#p2330c94e90)">
     <use style="fill:#c8b7ec;stroke:#9370da;stroke-width:0.5;" x="68.074612" xlink:href="#md345c2539c" y="13.449878"/>
     <use style="fill:#c8b7ec;stroke:#9370da;stroke-width:0.5;" x="72.210361" xlink:href="#md345c2539c" y="32.959787"/>
     <use style="fill:#c8b7ec;stroke:#9370da;stroke-width:0.5;" x="80.48186" xlink:href="#md345c2539c" y="28.469662"/>
     <use style="fill:#c8b7ec;stroke:#9370da;stroke-width:0.5;" x="97.024856" xlink:href="#md345c2539c" y="27.277765"/>
     <use style="fill:#c8b7ec;stroke:#9370da;stroke-width:0.5;" x="130.11085" xlink:href="#md345c2539c" y="43.833393"/>
    </g>
   </g>
   <g id="matplotlib.axis_5">
    <g id="xtick_11">
     <g id="line2d_48">
      <g>
       <use style="stroke:#000000;stroke-width:0.35;" x="84.617609" xlink:href="#mab065f19c9" y="55.3266"/>
      </g>
     </g>
     <g id="text_25">
      <!-- $\mathdefault{10}$ -->
      <g transform="translate(80.383426 65.861402)scale(0.08 -0.08)">
       <use transform="scale(0.996264)" xlink:href="#CMR17-31"/>
       <use transform="translate(45.690477 0)scale(0.996264)" xlink:href="#CMR17-30"/>
      </g>
     </g>
    </g>
    <g id="xtick_12">
     <g id="line2d_49">
      <g>
       <use style="stroke:#000000;stroke-width:0.35;" x="105.296355" xlink:href="#mab065f19c9" y="55.3266"/>
      </g>
     </g>
     <g id="text_26">
      <!-- $\mathdefault{20}$ -->
      <g transform="translate(101.062172 65.861402)scale(0.08 -0.08)">
       <use transform="scale(0.996264)" xlink:href="#CMR17-32"/>
       <use transform="translate(45.690477 0)scale(0.996264)" xlink:href="#CMR17-30"/>
      </g>
     </g>
    </g>
    <g id="xtick_13">
     <g id="line2d_50">
      <g>
       <use style="stroke:#000000;stroke-width:0.35;" x="125.975101" xlink:href="#mab065f19c9" y="55.3266"/>
      </g>
     </g>
     <g id="text_27">
      <!-- $\mathdefault{30}$ -->
      <g transform="translate(121.740918 65.861402)scale(0.08 -0.08)">
       <use transform="scale(0.996264)" xlink:href="#CMR17-33"/>
       <use transform="translate(45.690477 0)scale(0.996264)" xlink:href="#CMR17-30"/>
      </g>
     </g>
    </g>
    <g id="text_28">
     <!-- $\beta$ -->
     <g transform="translate(96.71689 74.945949)scale(0.08 -0.08)">
      <use transform="scale(0.996264)" xlink:href="#CMMI12-c"/>
     </g>
    </g>
   </g>
   <g id="matplotlib.axis_6">
    <g id="ytick_11">
     <g id="line2d_51">
      <g>
       <use style="stroke:#000000;stroke-width:0.35;" x="64.9728" xlink:href="#m49edad2543" y="43.679842"/>
      </g>
     </g>
     <g id="text_29">
      <!-- $\mathdefault{0.8}$ -->
      <g transform="translate(49.15211 46.447243)scale(0.08 -0.08)">
       <defs>
        <path d="M 1741 2289 
C 2144 2494 2554 2803 2554 3298 
C 2554 3884 1990 4224 1472 4224 
C 890 4224 378 3800 378 3215 
C 378 3054 416 2777 666 2533 
C 730 2469 998 2276 1171 2154 
C 883 2006 211 1652 211 945 
C 211 282 838 -128 1459 -128 
C 2144 -128 2720 366 2720 1022 
C 2720 1607 2330 1877 2074 2051 
L 1741 2289 
z
M 902 2855 
C 851 2887 595 3086 595 3388 
C 595 3781 998 4076 1459 4076 
C 1965 4076 2336 3716 2336 3298 
C 2336 2700 1670 2359 1638 2359 
C 1632 2359 1626 2359 1574 2398 
L 902 2855 
z
M 2080 1536 
C 2176 1466 2483 1253 2483 861 
C 2483 385 2010 25 1472 25 
C 890 25 448 443 448 951 
C 448 1459 838 1884 1280 2083 
L 2080 1536 
z
" id="CMR17-38" transform="scale(0.015625)"/>
       </defs>
       <use transform="scale(0.996264)" xlink:href="#CMR17-30"/>
       <use transform="translate(45.690477 0)scale(0.996264)" xlink:href="#CMMI12-3a"/>
       <use transform="translate(72.787654 0)scale(0.996264)" xlink:href="#CMR17-38"/>
      </g>
     </g>
    </g>
    <g id="ytick_12">
     <g id="line2d_52">
      <g>
       <use style="stroke:#000000;stroke-width:0.35;" x="64.9728" xlink:href="#m49edad2543" y="24.482421"/>
      </g>
     </g>
     <g id="text_30">
      <!-- $\mathdefault{0.9}$ -->
      <g transform="translate(49.15211 27.249822)scale(0.08 -0.08)">
       <defs>
        <path d="M 2253 1871 
C 2253 448 1670 25 1190 25 
C 1043 25 685 43 538 281 
C 704 256 826 345 826 505 
C 826 678 685 736 595 736 
C 538 736 365 710 365 492 
C 365 68 742 -128 1203 -128 
C 1939 -128 2688 665 2688 2090 
C 2688 3857 1971 4224 1485 4224 
C 851 4224 243 3664 243 2800 
C 243 2000 762 1408 1414 1408 
C 1952 1408 2189 1910 2253 2122 
L 2253 1871 
z
M 1427 1510 
C 1254 1510 1011 1542 813 1929 
C 678 2181 678 2477 678 2793 
C 678 3174 678 3438 858 3722 
C 947 3857 1114 4076 1485 4076 
C 2240 4076 2240 2909 2240 2651 
C 2240 2193 2035 1510 1427 1510 
z
" id="CMR17-39" transform="scale(0.015625)"/>
       </defs>
       <use transform="scale(0.996264)" xlink:href="#CMR17-30"/>
       <use transform="translate(45.690477 0)scale(0.996264)" xlink:href="#CMMI12-3a"/>
       <use transform="translate(72.787654 0)scale(0.996264)" xlink:href="#CMR17-39"/>
      </g>
     </g>
    </g>
    <g id="text_31">
     <!-- $\mathcal{T}^{\rm{D}}/\mathcal{T}^{\rm{R}}$ -->
     <g transform="translate(45.159582 45.052657)rotate(-90)scale(0.08 -0.08)">
      <use transform="scale(0.996264)" xlink:href="#CMSY10-54"/>
      <use transform="translate(79.582745 36.153639)scale(0.697382)" xlink:href="#CMR17-44"/>
      <use transform="translate(129.356147 0)scale(0.996264)" xlink:href="#CMMI12-3d"/>
      <use transform="translate(178.131066 0)scale(0.996264)" xlink:href="#CMSY10-54"/>
      <use transform="translate(257.71381 36.153639)scale(0.697382)" xlink:href="#CMR17-52"/>
     </g>
    </g>
   </g>
   <g id="patch_13">
    <path d="M 64.9728 55.3266 
L 64.9728 5.81184 
" style="fill:none;stroke:#000000;stroke-linecap:square;stroke-linejoin:miter;stroke-width:0.5;"/>
   </g>
   <g id="patch_14">
    <path d="M 64.9728 55.3266 
L 133.212662 55.3266 
" style="fill:none;stroke:#000000;stroke-linecap:square;stroke-linejoin:miter;stroke-width:0.5;"/>
   </g>
  </g>
  <g id="axes_4">
   <g id="patch_15">
    <path d="M 64.9728 176.50746 
L 133.212662 176.50746 
L 133.212662 126.9927 
L 64.9728 126.9927 
z
" style="fill:none;"/>
   </g>
   <g id="LineCollection_8">
    <path clip-path="url(#p3851796ffd)" d="M 68.074612 141.29978 
L 68.074612 129.243371 
" style="fill:none;stroke:#9370da;stroke-width:0.5;"/>
    <path clip-path="url(#p3851796ffd)" d="M 72.210361 159.130897 
L 72.210361 148.495351 
" style="fill:none;stroke:#9370da;stroke-width:0.5;"/>
    <path clip-path="url(#p3851796ffd)" d="M 80.48186 154.890164 
L 80.48186 144.074969 
" style="fill:none;stroke:#9370da;stroke-width:0.5;"/>
    <path clip-path="url(#p3851796ffd)" d="M 97.024856 153.078333 
L 97.024856 140.915933 
" style="fill:none;stroke:#9370da;stroke-width:0.5;"/>
    <path clip-path="url(#p3851796ffd)" d="M 130.11085 174.256789 
L 130.11085 152.573366 
" style="fill:none;stroke:#9370da;stroke-width:0.5;"/>
   </g>
   <g id="line2d_53">
    <g clip-path="url(#p3851796ffd)">
     <use style="fill:#9370da;stroke:#9370da;stroke-width:0.5;" x="68.074612" xlink:href="#mdce42de68d" y="141.29978"/>
     <use style="fill:#9370da;stroke:#9370da;stroke-width:0.5;" x="72.210361" xlink:href="#mdce42de68d" y="159.130897"/>
     <use style="fill:#9370da;stroke:#9370da;stroke-width:0.5;" x="80.48186" xlink:href="#mdce42de68d" y="154.890164"/>
     <use style="fill:#9370da;stroke:#9370da;stroke-width:0.5;" x="97.024856" xlink:href="#mdce42de68d" y="153.078333"/>
     <use style="fill:#9370da;stroke:#9370da;stroke-width:0.5;" x="130.11085" xlink:href="#mdce42de68d" y="174.256789"/>
    </g>
   </g>
   <g id="line2d_54">
    <g clip-path="url(#p3851796ffd)">
     <use style="fill:#9370da;stroke:#9370da;stroke-width:0.5;" x="68.074612" xlink:href="#mdce42de68d" y="129.243371"/>
     <use style="fill:#9370da;stroke:#9370da;stroke-width:0.5;" x="72.210361" xlink:href="#mdce42de68d" y="148.495351"/>
     <use style="fill:#9370da;stroke:#9370da;stroke-width:0.5;" x="80.48186" xlink:href="#mdce42de68d" y="144.074969"/>
     <use style="fill:#9370da;stroke:#9370da;stroke-width:0.5;" x="97.024856" xlink:href="#mdce42de68d" y="140.915933"/>
     <use style="fill:#9370da;stroke:#9370da;stroke-width:0.5;" x="130.11085" xlink:href="#mdce42de68d" y="152.573366"/>
    </g>
   </g>
   <g id="line2d_55">
    <g clip-path="url(#p3851796ffd)">
     <use style="fill:#c8b7ec;stroke:#9370da;stroke-width:0.5;" x="68.074612" xlink:href="#md345c2539c" y="135.271575"/>
     <use style="fill:#c8b7ec;stroke:#9370da;stroke-width:0.5;" x="72.210361" xlink:href="#md345c2539c" y="153.813124"/>
     <use style="fill:#c8b7ec;stroke:#9370da;stroke-width:0.5;" x="80.48186" xlink:href="#md345c2539c" y="149.482567"/>
     <use style="fill:#c8b7ec;stroke:#9370da;stroke-width:0.5;" x="97.024856" xlink:href="#md345c2539c" y="146.997133"/>
     <use style="fill:#c8b7ec;stroke:#9370da;stroke-width:0.5;" x="130.11085" xlink:href="#md345c2539c" y="163.415078"/>
    </g>
   </g>
   <g id="matplotlib.axis_7">
    <g id="xtick_14">
     <g id="line2d_56">
      <g>
       <use style="stroke:#000000;stroke-width:0.35;" x="84.617609" xlink:href="#mab065f19c9" y="176.50746"/>
      </g>
     </g>
     <g id="text_32">
      <!-- $\mathdefault{10}$ -->
      <g transform="translate(80.383426 187.042262)scale(0.08 -0.08)">
       <use transform="scale(0.996264)" xlink:href="#CMR17-31"/>
       <use transform="translate(45.690477 0)scale(0.996264)" xlink:href="#CMR17-30"/>
      </g>
     </g>
    </g>
    <g id="xtick_15">
     <g id="line2d_57">
      <g>
       <use style="stroke:#000000;stroke-width:0.35;" x="105.296355" xlink:href="#mab065f19c9" y="176.50746"/>
      </g>
     </g>
     <g id="text_33">
      <!-- $\mathdefault{20}$ -->
      <g transform="translate(101.062172 187.042262)scale(0.08 -0.08)">
       <use transform="scale(0.996264)" xlink:href="#CMR17-32"/>
       <use transform="translate(45.690477 0)scale(0.996264)" xlink:href="#CMR17-30"/>
      </g>
     </g>
    </g>
    <g id="xtick_16">
     <g id="line2d_58">
      <g>
       <use style="stroke:#000000;stroke-width:0.35;" x="125.975101" xlink:href="#mab065f19c9" y="176.50746"/>
      </g>
     </g>
     <g id="text_34">
      <!-- $\mathdefault{30}$ -->
      <g transform="translate(121.740918 187.042262)scale(0.08 -0.08)">
       <use transform="scale(0.996264)" xlink:href="#CMR17-33"/>
       <use transform="translate(45.690477 0)scale(0.996264)" xlink:href="#CMR17-30"/>
      </g>
     </g>
    </g>
    <g id="text_35">
     <!-- $\beta$ -->
     <g transform="translate(96.71689 196.126809)scale(0.08 -0.08)">
      <use transform="scale(0.996264)" xlink:href="#CMMI12-c"/>
     </g>
    </g>
   </g>
   <g id="matplotlib.axis_8">
    <g id="ytick_13">
     <g id="line2d_59">
      <g>
       <use style="stroke:#000000;stroke-width:0.35;" x="64.9728" xlink:href="#m49edad2543" y="166.820553"/>
      </g>
     </g>
     <g id="text_36">
      <!-- $\mathdefault{0.8}$ -->
      <g transform="translate(49.15211 169.587954)scale(0.08 -0.08)">
       <use transform="scale(0.996264)" xlink:href="#CMR17-30"/>
       <use transform="translate(45.690477 0)scale(0.996264)" xlink:href="#CMMI12-3a"/>
       <use transform="translate(72.787654 0)scale(0.996264)" xlink:href="#CMR17-38"/>
      </g>
     </g>
    </g>
    <g id="ytick_14">
     <g id="line2d_60">
      <g>
       <use style="stroke:#000000;stroke-width:0.35;" x="64.9728" xlink:href="#m49edad2543" y="146.741975"/>
      </g>
     </g>
     <g id="text_37">
      <!-- $\mathdefault{0.9}$ -->
      <g transform="translate(49.15211 149.509375)scale(0.08 -0.08)">
       <use transform="scale(0.996264)" xlink:href="#CMR17-30"/>
       <use transform="translate(45.690477 0)scale(0.996264)" xlink:href="#CMMI12-3a"/>
       <use transform="translate(72.787654 0)scale(0.996264)" xlink:href="#CMR17-39"/>
      </g>
     </g>
    </g>
    <g id="text_38">
     <!-- $\mathcal{T}^{\rm{D}}/\mathcal{T}^{\rm{R}}$ -->
     <g transform="translate(45.159582 166.233517)rotate(-90)scale(0.08 -0.08)">
      <use transform="scale(0.996264)" xlink:href="#CMSY10-54"/>
      <use transform="translate(79.582745 36.153639)scale(0.697382)" xlink:href="#CMR17-44"/>
      <use transform="translate(129.356147 0)scale(0.996264)" xlink:href="#CMMI12-3d"/>
      <use transform="translate(178.131066 0)scale(0.996264)" xlink:href="#CMSY10-54"/>
      <use transform="translate(257.71381 36.153639)scale(0.697382)" xlink:href="#CMR17-52"/>
     </g>
    </g>
   </g>
   <g id="patch_16">
    <path d="M 64.9728 176.50746 
L 64.9728 126.9927 
" style="fill:none;stroke:#000000;stroke-linecap:square;stroke-linejoin:miter;stroke-width:0.5;"/>
   </g>
   <g id="patch_17">
    <path d="M 64.9728 176.50746 
L 133.212662 176.50746 
" style="fill:none;stroke:#000000;stroke-linecap:square;stroke-linejoin:miter;stroke-width:0.5;"/>
   </g>
  </g>
 </g>
 <defs>
  <clipPath id="p9874a3aa54">
   <rect height="112.716973" width="184.954241" x="34.621279" y="3.6"/>
  </clipPath>
  <clipPath id="pbad1ffa603">
   <rect height="112.716973" width="184.954241" x="34.621279" y="124.317453"/>
  </clipPath>
  <clipPath id="p2330c94e90">
   <rect height="49.51476" width="68.239862" x="64.9728" y="5.81184"/>
  </clipPath>
  <clipPath id="p3851796ffd">
   <rect height="49.51476" width="68.239862" x="64.9728" y="126.9927"/>
  </clipPath>
 </defs>
</svg>
